<svg width="25" height="13" viewBox="0 0 25 13" fill="none" xmlns="http://www.w3.org/2000/svg">
<g clip-path="url(#clip0_624_1253)">
<path d="M24.7746 5.625C21.9281 2.1875 17.7111 0.208333 13.2834 0H12.0183L9.90982 0.208333C9.27728 0.3125 8.53932 0.520833 7.90678 0.729167C7.27424 0.9375 6.53626 1.25 5.90372 1.45833C5.27118 1.77083 4.63864 2.08333 4.0061 2.5C3.5844 2.8125 2.6356 3.54167 2.2139 3.85417C1.58136 4.375 1.05424 5 0.527118 5.52083L0 6.25C0.316271 6.875 0.737965 7.39583 1.26508 7.91667C1.68678 7.29167 2.2139 6.77083 2.74101 6.25L2.84644 6.14583L3.90068 9.79167C4.74407 10.3125 5.58746 10.8333 6.43085 11.1458L4.63864 4.6875C5.27118 4.27083 5.90372 3.85417 6.53626 3.54167L8.85558 12.0833C9.59355 12.2917 10.3315 12.3958 11.1749 12.5L8.43389 2.70833C9.06643 2.5 9.8044 2.39583 10.4369 2.1875L13.178 12.3958L15.2864 12.1875C18.9762 11.5625 22.2444 9.6875 24.6692 6.875C25.0908 6.5625 25.0908 5.9375 24.7746 5.625ZM16.8678 6.25C16.8678 7.70833 16.0244 9.0625 14.7593 9.79167L14.3376 8.22917C14.9701 7.70833 15.2864 6.97917 15.2864 6.25C15.2864 5 14.3376 3.85417 13.0725 3.64583L12.6508 2.08333C14.9701 2.08333 16.8678 3.95833 16.8678 6.25ZM18.2383 9.27083C19.2925 7.39583 19.2925 5.10417 18.2383 3.33333C19.8196 4.0625 21.2956 5.10417 22.5607 6.35417C21.2956 7.5 19.8196 8.54167 18.2383 9.27083Z" fill="#F5F5F5"/>
</g>
<defs>
<clipPath id="clip0_624_1253">
<rect width="25" height="12.5" fill="white"/>
</clipPath>
</defs>
</svg>
