<svg width="30" height="30" viewBox="0 0 30 30" fill="none" xmlns="http://www.w3.org/2000/svg">
<path d="M15.0002 1.2002C7.391 1.2002 1.2002 7.3904 1.2002 15.0002C1.2002 22.61 7.391 28.8002 15.0002 28.8002C22.61 28.8002 28.8002 22.61 28.8002 15.0002C28.8002 7.3904 22.61 1.2002 15.0002 1.2002ZM19.2002 9.6002H17.2262C16.0634 9.6002 15.6002 9.8732 15.6002 10.6838V12.6002H19.2002L18.6002 15.6002H15.6002V23.4002H12.0002V15.6002H10.2002V12.6002H12.0002V10.9358C12.0002 8.4008 13.0118 6.6002 15.9488 6.6002C17.522 6.6002 19.2002 7.2002 19.2002 7.2002V9.6002Z" fill="white"/>
</svg>
