<svg width="24" height="39" viewBox="0 0 24 39" fill="none" xmlns="http://www.w3.org/2000/svg">
<g clip-path="url(#clip0_624_1248)">
<path d="M11.992 0C11.0601 1.03173 10.4921 2.38137 10.4921 3.86363C10.5471 7.11777 10.9561 10.368 10.9921 13.6153C11.0661 16.6481 10.1342 19.4956 9.00025 22.2748C8.62228 23.0423 8.21432 23.7932 7.80535 24.546L6.60545 24.31C5.52254 24.0994 4.8186 23.0725 5.03558 22.0164C5.22457 21.0929 6.0585 20.4464 6.98842 20.4464L7.42638 20.4922L6.44946 12.5348C6.13049 8.99497 4.25665 5.88418 1.49988 3.86558C1.02591 3.51842 0.522956 3.20051 0 2.92064V31.1713H6.68744C7.1874 33.814 8.68128 36.1252 10.7811 37.705C11.2801 38.0404 11.699 38.4832 12 39C12.3 38.4832 12.7189 38.0404 13.2189 37.705C15.3187 36.1213 16.8126 33.815 17.3126 31.1713H24V2.92064C23.477 3.20051 22.9741 3.51842 22.5001 3.86558C19.7404 5.8871 17.8705 8.99497 17.5505 12.5348L16.5736 20.4922L17.0116 20.4464C17.9415 20.4503 18.7754 21.092 18.9644 22.0164C19.1804 23.0725 18.4765 24.0984 17.3946 24.31L16.1947 24.546C15.7857 23.7942 15.3767 23.0433 14.9998 22.2748C13.8648 19.4976 12.9329 16.6501 13.0069 13.6153C13.0429 10.3583 13.4519 7.11094 13.5069 3.86363C13.5069 2.38137 12.9389 1.03563 12.007 0H11.992ZM1.99283 6.99197C3.28673 8.47326 4.15565 10.3173 4.41263 12.3486L5.21257 18.9115C4.18765 19.4088 3.41272 20.3216 3.11874 21.4265H1.98583V6.99392L1.99283 6.99197ZM21.9912 6.99197V21.4245H20.8583C20.5663 20.3206 19.7894 19.4078 18.7644 18.9095L19.5644 12.3466C19.8233 10.3173 20.6923 8.47131 21.9842 6.98905L21.9912 6.99197ZM11.992 20.186C12.529 21.8994 13.2679 23.5309 14.1868 25.0404C13.3129 25.2989 12.553 25.802 11.992 26.4798C11.431 25.802 10.6711 25.2998 9.79718 25.0395C10.7161 23.527 11.455 21.8994 11.992 20.186ZM1.99283 23.3787H3.12574C3.48271 24.7255 4.56062 25.7884 5.92551 26.1599L6.88643 26.3735C6.62945 27.2824 6.48846 28.2361 6.48846 29.2307H1.98883V23.3797L1.99283 23.3787ZM20.8613 23.3787H21.9942V29.2298H17.4945C17.4945 28.2409 17.3536 27.2824 17.0966 26.3725L18.0575 26.159C19.4274 25.7874 20.5043 24.7235 20.8573 23.3778L20.8613 23.3787ZM8.84226 26.8211C10.0552 26.9878 10.9901 28.0011 10.9901 29.2288H8.49029C8.49029 28.3931 8.61728 27.5866 8.84226 26.8211ZM15.1387 26.8211C15.3637 27.5866 15.4907 28.3911 15.4907 29.2288H12.9909C12.9909 27.9991 13.9258 26.9878 15.1387 26.8211ZM8.71927 31.1801H10.9921V35.2856C9.89218 34.1593 9.09224 32.7501 8.71927 31.1801ZM12.9919 31.1801H15.2647C14.8968 32.7501 14.0948 34.1612 12.9919 35.2856V31.1801Z" fill="#FFD500"/>
</g>
<defs>
<clipPath id="clip0_624_1248">
<rect width="24" height="39" fill="white"/>
</clipPath>
</defs>
</svg>
