<svg width="30" height="30" viewBox="0 0 30 30" fill="none" xmlns="http://www.w3.org/2000/svg">
<path d="M27.682 3.931C27.232 3.5494 26.5252 3.4948 25.7944 3.7882H25.7932C25.0246 4.0966 4.0366 13.099 3.1822 13.4668C3.0268 13.5208 1.6696 14.0272 1.8094 15.1552C1.9342 16.1722 3.025 16.5934 3.1582 16.642L8.494 18.469C8.848 19.6474 10.153 23.995 10.4416 24.9238C10.6216 25.5028 10.915 26.2636 11.4292 26.4202C11.8804 26.5942 12.3292 26.4352 12.6196 26.2072L15.8818 23.1814L21.148 27.2884L21.2734 27.3634C21.631 27.5218 21.9736 27.601 22.3006 27.601C22.5532 27.601 22.7956 27.5536 23.0272 27.4588C23.8162 27.1348 24.1318 26.383 24.1648 26.2978L28.0984 5.8516C28.3384 4.7596 28.0048 4.204 27.682 3.931ZM13.1998 19.1998L11.3998 23.9998L9.5998 17.9998L23.3998 7.7998L13.1998 19.1998Z" fill="white" fill-opacity="0.85"/>
</svg>
