<svg width="30" height="30" viewBox="0 0 30 30" fill="none" xmlns="http://www.w3.org/2000/svg">
<path d="M26.8688 7.89356C26.4001 6.22012 25.472 4.89824 24.1126 3.96309C22.397 2.77949 20.4235 2.36231 18.7196 2.10684C16.3618 1.75528 14.2267 1.70606 12.1899 1.95449C10.2821 2.18887 8.84541 2.56153 7.53525 3.16387C4.9665 4.34512 3.42432 6.25527 2.95322 8.84043C2.72353 10.0967 2.56885 11.2311 2.47978 12.3139C2.27353 14.817 2.46103 17.0318 3.05166 19.085C3.62823 21.0865 4.63369 22.5162 6.12666 23.4561C6.50635 23.6951 6.99385 23.8686 7.46494 24.035C7.73213 24.1287 7.99229 24.2201 8.20557 24.3209C8.40245 24.4123 8.40245 24.4287 8.40011 24.5928C8.3837 26.0154 8.40011 28.8045 8.40011 28.8045L8.40479 29.3998H9.47354L9.64698 29.2311C9.76182 29.1232 12.4103 26.5639 13.3548 25.5326L13.4837 25.3897C13.6454 25.2022 13.6454 25.2022 13.8118 25.1998C15.0868 25.174 16.39 25.1248 17.6837 25.0545C19.2517 24.9701 21.0681 24.8178 22.779 24.1053C24.3446 23.4514 25.4884 22.4131 26.1751 21.0209C26.8923 19.5678 27.3165 17.9951 27.4759 16.2115C27.7571 13.0756 27.5579 10.3545 26.8688 7.89356ZM21.2298 20.0881C20.836 20.7279 20.2501 21.1732 19.5587 21.4615C19.0524 21.6725 18.5368 21.6279 18.0376 21.417C13.8587 19.6475 10.5798 16.8607 8.41415 12.8529C7.9665 12.0279 7.65712 11.1279 7.30087 10.2561C7.22822 10.0779 7.2329 9.86699 7.20009 9.67012C7.23056 8.26153 8.31102 7.467 9.40322 7.22794C9.8204 7.13419 10.1907 7.28184 10.5001 7.5795C11.3579 8.39513 12.0352 9.34435 12.5462 10.4084C12.7688 10.8748 12.6681 11.2873 12.2884 11.6342C12.2087 11.7068 12.1267 11.7725 12.0399 11.8381C11.1728 12.4897 11.0462 12.9842 11.5079 13.9662C12.2954 15.6373 13.6032 16.76 15.2931 17.4561C15.7384 17.6389 16.1579 17.5475 16.4977 17.1865C16.5446 17.1397 16.5962 17.0928 16.629 17.0365C17.2946 15.9256 18.2626 16.0358 19.1556 16.6686C19.7415 17.0858 20.311 17.5264 20.8899 17.9506C21.7735 18.5998 21.7665 19.2092 21.2298 20.0881ZM15.6868 8.99981C15.4899 8.99981 15.2931 9.01621 15.0985 9.04903C14.7704 9.10293 14.4634 8.88262 14.4071 8.55449C14.3532 8.22871 14.5735 7.91934 14.9017 7.86543C15.1595 7.8209 15.4243 7.79981 15.6868 7.79981C18.286 7.79981 20.4001 9.91387 20.4001 12.5131C20.4001 12.7779 20.379 13.0428 20.3345 13.2982C20.2853 13.5912 20.0321 13.7998 19.7439 13.7998C19.711 13.7998 19.6782 13.7975 19.6431 13.7904C19.3173 13.7365 19.097 13.4272 19.1509 13.1014C19.1837 12.9092 19.2001 12.7123 19.2001 12.5131C19.2001 10.5772 17.6227 8.99981 15.6868 8.99981ZM18.6001 12.5998C18.6001 12.9303 18.3306 13.1998 18.0001 13.1998C17.6696 13.1998 17.4001 12.9303 17.4001 12.5998C17.4001 11.6084 16.5915 10.7998 15.6001 10.7998C15.2696 10.7998 15.0001 10.5303 15.0001 10.1998C15.0001 9.86934 15.2696 9.59981 15.6001 9.59981C17.2548 9.59981 18.6001 10.9451 18.6001 12.5998ZM22.0267 13.9334C21.9634 14.2123 21.7149 14.3998 21.4407 14.3998C21.3962 14.3998 21.3517 14.3951 21.3071 14.3857C20.9837 14.3107 20.7821 13.9896 20.8548 13.6662C20.9415 13.2842 20.986 12.8881 20.986 12.4896C20.986 9.57403 18.6118 7.1998 15.6962 7.1998C15.2977 7.1998 14.9017 7.24434 14.5196 7.33105C14.1962 7.40605 13.8751 7.20215 13.8024 6.87871C13.7274 6.55527 13.9313 6.23417 14.2548 6.16152C14.7235 6.05371 15.2087 5.9998 15.6962 5.9998C19.2751 5.9998 22.186 8.91074 22.186 12.4896C22.186 12.9771 22.1321 13.4623 22.0267 13.9334Z" fill="white" fill-opacity="0.85"/>
</svg>
