<svg width="30" height="30" viewBox="0 0 30 30" fill="none" xmlns="http://www.w3.org/2000/svg">
<path d="M14.9998 1.2002C7.3906 1.2002 1.1998 7.391 1.1998 15.0002C1.1998 17.3762 1.8136 19.7126 2.9776 21.7742L1.222 28.0382C1.1644 28.244 1.2202 28.4648 1.369 28.6178C1.4836 28.736 1.6396 28.8002 1.7998 28.8002C1.8478 28.8002 1.8964 28.7942 1.9438 28.7828L8.4814 27.1634C10.4776 28.235 12.7258 28.8002 14.9998 28.8002C22.609 28.8002 28.7998 22.6094 28.7998 15.0002C28.7998 7.391 22.609 1.2002 14.9998 1.2002ZM21.9418 19.8698C21.6466 20.687 20.2306 21.4328 19.5502 21.533C18.9394 21.6224 18.1666 21.6608 17.3182 21.3944C16.804 21.2324 16.144 21.0176 15.2986 20.657C11.7448 19.1414 9.424 15.608 9.2464 15.3746C9.0694 15.1412 7.7998 13.478 7.7998 11.7566C7.7998 10.0352 8.7148 9.1886 9.04 8.8382C9.3652 8.4878 9.7486 8.4002 9.985 8.4002C10.2214 8.4002 10.4572 8.4032 10.6642 8.4128C10.882 8.4236 11.1742 8.3306 11.4616 9.0134C11.7568 9.7142 12.4654 11.4356 12.553 11.6114C12.6418 11.7866 12.7006 11.9912 12.583 12.2246C12.4654 12.458 12.4066 12.6038 12.229 12.8084C12.0514 13.013 11.857 13.2644 11.6974 13.4216C11.5198 13.5962 11.3356 13.7852 11.542 14.1356C11.7484 14.486 12.4594 15.6314 13.513 16.559C14.866 17.7506 16.0078 18.1202 16.3618 18.2954C16.7158 18.4706 16.9228 18.4412 17.1292 18.2078C17.3356 17.9738 18.0148 17.186 18.2506 16.8362C18.4864 16.4864 18.7228 16.544 19.048 16.661C19.3732 16.7774 21.115 17.6234 21.469 17.7986C21.823 17.9738 22.0594 18.0614 22.1482 18.2072C22.237 18.3524 22.237 19.0532 21.9418 19.8698Z" fill="white" fill-opacity="0.85"/>
</svg>
