<svg class="eye" width="18" height="9" viewBox="0 0 18 9" fill="none" xmlns="http://www.w3.org/2000/svg">
    <path d="M17.8377 4.05C15.7882 1.575 12.752 0.15 9.56403 0H8.65317L7.13507 0.15C6.67964 0.225 6.14831 0.375 5.69288 0.525C5.23745 0.675 4.70611 0.9 4.25068 1.05C3.79525 1.275 3.33982 1.5 2.88439 1.8C2.58077 2.025 1.89763 2.55 1.59401 2.775C1.13858 3.15 0.75905 3.6 0.379525 3.975L0 4.5C0.227715 4.95 0.531335 5.325 0.91086 5.7C1.21448 5.25 1.59401 4.875 1.97353 4.5L2.04944 4.425L2.80849 7.05C3.41573 7.425 4.02297 7.8 4.63021 8.025L3.33982 3.375C3.79525 3.075 4.25068 2.775 4.70611 2.55L6.37602 8.7C6.90736 8.85 7.43869 8.925 8.04593 9L6.0724 1.95C6.52783 1.8 7.05917 1.725 7.5146 1.575L9.48813 8.925L11.0062 8.775C13.6629 8.325 16.016 6.975 17.7618 4.95C18.0654 4.725 18.0654 4.275 17.8377 4.05ZM12.1448 4.5C12.1448 5.55 11.5376 6.525 10.6267 7.05L10.3231 5.925C10.7785 5.55 11.0062 5.025 11.0062 4.5C11.0062 3.6 10.3231 2.775 9.41222 2.625L9.1086 1.5C10.7785 1.5 12.1448 2.85 12.1448 4.5ZM13.1316 6.675C13.8906 5.325 13.8906 3.675 13.1316 2.4C14.2701 2.925 15.3328 3.675 16.2437 4.575C15.3328 5.4 14.2701 6.15 13.1316 6.675Z" fill="white"></path>
</svg>