<svg class="offer-img" version="1.1" id="Шар_2" xmlns="http://www.w3.org/2000/svg" xmlns:xlink="http://www.w3.org/1999/xlink" x="0px" y="0px"
                                     viewBox="0 0 567 567" style="enable-background:new 0 0 567 567;" xml:space="preserve">
                                <g>
                                <path d="M535.85,283.09l-0.11-1.07c-0.5-4.78-4.32-8.62-9.1-9.14c-1.09-0.12-3.46-0.61-5.97-1.13
                                    c-18.89-3.94-69.06-14.39-113,18.29c-25.82,19.21-33.95,50.57-35.73,73.99l-16.6-34.63c-0.74-1.53-1.12-3.24-1.12-4.94v-86.63
                                    c11.03-2.18,19.38-11.92,19.38-23.58c0-13.26-10.78-24.04-24.04-24.04h-61.02h-0.41h-61.02c-13.26,0-24.04,10.79-24.04,24.04
                                    c0,11.66,8.35,21.4,19.38,23.58v86.63c0,1.7-0.39,3.41-1.12,4.95l-3.29,6.85c1.03-26.44-2.83-56.8-20.01-80.48
                                    c-18.15-25.01-43.04-43.17-74.01-53.99c-24.73-8.64-46.53-10.21-57-10.96c-1.85-0.13-3.76-0.27-4.42-0.38
                                    c-4.62-0.73-9.12,2.09-10.44,6.47c-0.23,0.64-1.29,2.7-2.23,4.51c-9.16,17.72-37.03,71.65-4.57,139.54
                                    c30.98,64.79,109.26,70.34,118.07,70.76c3.45,0.16,6.71-1.56,8.5-4.51c1.8-2.96,1.83-6.65,0.09-9.64l-22.23-38.17
                                    c-1.11-1.91-2.87-3.37-4.96-4.12l-37.58-13.46l19.44-4.38c2.76-0.62,5.07-2.43,6.34-4.96c1.27-2.53,1.34-5.46,0.2-8.04
                                    l-16.88-38.29l10.43,8.37c3.32,2.66,8.04,2.76,11.48,0.23l11.69-8.61v44.71c0,1.85,0.54,3.64,1.57,5.21l38.68,58.22l-36.04,75.17
                                    c-6.34,13.23-5.46,28.55,2.35,40.96c7.82,12.42,21.25,19.83,35.92,19.83h95.69h0.41h95.69c14.68,0,28.1-7.41,35.92-19.83
                                    c7.82-12.42,8.7-27.73,2.35-40.96l-33.95-70.8c0.55-0.36,1.08-0.75,1.57-1.22l29.03-28.23c1.16-1.13,2.05-2.54,2.56-4.08
                                    l7.82-23.23c2.53,4.28,7.94,6.21,12.67,4.32l18.82-7.53l-52.52,56.87c-2.43,2.63-3.31,6.26-2.36,9.7c0.95,3.45,3.57,6.11,7,7.12
                                    c0.81,0.24,2.02,0.71,3.42,1.26c5.66,2.2,14.38,5.6,26.11,5.6c11.7,0,26.38-3.37,44.01-14.66
                                    C524.21,380.54,541.67,337.4,535.85,283.09z M161.59,263.11c-3.19-1.61-6.96-1.3-9.84,0.82l-18.89,13.92l-29.59-23.74
                                    c-3.4-2.73-8.18-2.78-11.64-0.13c-3.45,2.65-4.64,7.29-2.88,11.27L114.21,323l-35.51,8c-4.13,0.93-7.08,4.39-7.34,8.62
                                    c-0.26,4.22,2.25,8.02,6.23,9.44l59.01,21.13l13.48,23.14c-23.59-3.84-69.04-16.71-89.56-59.63c-28.86-60.35-4.74-107,4.34-124.57
                                    c0.29-0.55,0.55-1.07,0.8-1.56c0.05,0,0.09,0.01,0.14,0.01c19.96,1.44,80.71,5.82,118.61,58.06
                                    c23.27,32.08,17.41,81.3,11.94,107.51l-29.58-44.53v-57.11C166.75,267.94,164.77,264.72,161.59,263.11z M207.66,396.75l28.8-60.08
                                    c1.82-3.79,2.78-8.01,2.78-12.22v-86.16h25.06v-16.82h-37.21c-3.98,0-7.22-3.24-7.22-7.22s3.24-7.23,7.22-7.23h61.02h0.41h61.02
                                    c3.98,0,7.22,3.24,7.22,7.23s-3.24,7.22-7.22,7.22h-37.21v16.82h25.06v86.16c0,4.2,0.96,8.43,2.78,12.22l44.13,92.04h-60.25
                                    c-4.22-5.11-12.98-13.33-26.84-15.89v-5.57c2.18,0.32,4.63,0.55,7.26,0.55c4.94,0,10.47-0.79,15.86-3.18
                                    c8.98-3.99,15.57-11.37,19.58-21.92c1.94-5.09-0.45-10.78-5.43-12.97c-10.2-4.47-19.88-4.81-28.75-1.02
                                    c-4.5,1.92-8.26,4.74-11.34,7.8c-2.78-5.76-8.53-14.98-18.53-20.14c-8.73-4.5-18.61-5.03-29.36-1.56c-5.17,1.68-8.12,7.1-6.7,12.35
                                    c2.9,10.75,8.68,18.51,17.2,23.06c6.12,3.27,12.7,4.26,18.44,4.26c1.75,0,3.41-0.09,4.97-0.24v6.7l-0.36,0.98l0.36,0.14v10.66
                                    c-13.63,2.41-21.45,10.52-25.27,15.98h-62.78l8.69-18.12L207.66,396.75z M303.89,391c2.16-2.71,4.99-5.37,8.51-6.85
                                    c2.62-1.11,5.41-1.46,8.45-1.05c-3.33,4.65-7.9,7.21-13.81,7.78C305.96,390.98,304.9,391.02,303.89,391z M275.49,377.68
                                    c-3.53,0-7.36-0.57-10.58-2.29c-2.53-1.35-4.57-3.32-6.17-5.97c5.71-0.31,10.56,1.65,14.71,5.9
                                    C274.19,376.09,274.87,376.89,275.49,377.68z M405.9,501.46c-4.72,7.5-12.83,11.98-21.69,11.98h-95.69h-0.41h-95.69
                                    c-8.86,0-16.97-4.48-21.69-11.98c-4.72-7.5-5.25-16.74-1.42-24.73l14.96-31.2h81.2l2.17-5.14c0.05-0.11,5.06-11.55,20.88-11.55
                                    c16.23,0,23.72,12.06,23.99,12.51l2.43,4.19h77.42l14.96,31.2C411.16,484.72,410.62,493.96,405.9,501.46z M477.61,390.42
                                    c-24.01,15.38-39.77,12.85-50.11,9.35l65.5-70.93c3.28-3.55,3.65-8.81,0.91-12.79c-2.74-3.98-7.79-5.51-12.28-3.71l-39.75,15.9
                                    l-3.67-8.61c-1.68-3.96-5.55-6.41-9.85-6.25c-4.3,0.17-7.97,2.91-9.34,6.99l-12.76,37.9l-18.05,17.55
                                    c-0.15-20.48,5.57-54.49,29.48-72.28c37.87-28.17,81.08-19.17,99.53-15.32c0.8,0.17,1.56,0.32,2.26,0.47
                                    C523.54,335.12,509.1,370.25,477.61,390.42z"/>
                                    <path d="M364.09,128.99l15.88,15.52l11.75-12.03l-7.89-7.71l26.27-26.26c14.64-14.65,14.64-38.48,0-53.12
                                    c-7.09-7.09-16.53-11-26.56-11s-19.47,3.91-26.56,11L329.8,72.32l11.89,11.89l27.18-26.93c3.92-3.92,9.13-6.08,14.67-6.08
                                    c5.54,0,10.75,2.16,14.67,6.08c8.09,8.09,8.09,21.25,0,29.34l-26.4,26.4l-48.12-47.03l-11.75,12.03l15.52,15.17l-46.35,46.35v34.68
                                    h37.76L364.09,128.99z M297.92,157.4v-10.9l41.56-41.56l12.58,12.3L311.9,157.4H297.92z"/>
                                    <polygon points="83.05,133.88 99.87,133.88 99.87,117.18 116.78,117.18 116.78,100.37 99.87,100.37 99.87,83.67 83.05,83.67
                                    83.05,100.37 67.9,100.37 67.9,117.18 83.05,117.18 	"/>
                                    <polygon points="462.01,121.77 478.82,121.77 478.82,105.08 495.74,105.08 495.74,88.26 478.82,88.26 478.82,71.57 462.01,71.57
                                    462.01,88.26 446.85,88.26 446.85,105.08 462.01,105.08 	"/>
                                    <path d="M207.83,135.83c28.68,0,52.01-23.33,52.01-52.01s-23.33-52.01-52.01-52.01s-52.01,23.33-52.01,52.01
                                    S179.15,135.83,207.83,135.83z M207.83,48.63c19.4,0,35.19,15.79,35.19,35.19s-15.79,35.19-35.19,35.19s-35.19-15.79-35.19-35.19
                                    S188.42,48.63,207.83,48.63z"/>
                                    <path d="M445.37,232.89c18.93,0,34.34-15.4,34.34-34.34s-15.4-34.34-34.34-34.34c-18.93,0-34.34,15.4-34.34,34.34
                                    S426.43,232.89,445.37,232.89z M445.37,181.04c9.66,0,17.52,7.86,17.52,17.52c0,9.66-7.86,17.52-17.52,17.52
                                    c-9.66,0-17.52-7.86-17.52-17.52C427.85,188.89,435.71,181.04,445.37,181.04z"/>
                                    <rect x="187.46" y="75.41" width="15.75" height="16.82"/>
                                    <ellipse transform="matrix(0.3827 -0.9239 0.9239 0.3827 -299.7081 488.6904)" cx="215.83" cy="468.62" rx="10.49" ry="10.49"/>
                                    <path d="M192.3,486.8c-3.41,3.41-3.41,8.95,0,12.36c3.41,3.41,8.95,3.41,12.36,0c3.41-3.41,3.41-8.95,0-12.36
                                    S195.72,483.38,192.3,486.8z"/>
                                    <path d="M221.48,488.13c-2.68,2.68-2.68,7.01,0,9.69c2.68,2.68,7.01,2.68,9.69,0c2.68-2.68,2.68-7.01,0-9.69
                                    C228.49,485.46,224.16,485.46,221.48,488.13z"/>
                                    <path d="M291.37,464.42c-2.68,2.68-2.68,7.01,0,9.69c2.68,2.68,7.01,2.68,9.69,0c2.68-2.68,2.68-7.01,0-9.69
                                    C298.39,461.74,294.05,461.74,291.37,464.42z"/>
                                    <path d="M308.43,473.85c-2,1.7-2.25,4.69-0.55,6.69c1.7,2,4.69,2.25,6.69,0.55c2-1.7,2.25-4.69,0.55-6.69
                                    C313.43,472.41,310.43,472.16,308.43,473.85z"/>
                                    <ellipse transform="matrix(0.0541 -0.9985 0.9985 0.0541 -109.2175 829.3431)" cx="383.14" cy="472.32" rx="8.78" ry="8.78"/>
                                    <path d="M372.53,481.97c-2.92,0.37-4.99,3.05-4.62,5.97c0.37,2.92,3.05,4.99,5.97,4.62c2.92-0.37,4.99-3.05,4.62-5.97
                                    C378.12,483.67,375.45,481.6,372.53,481.97z"/>
                                    <path d="M288.8,321.2c15.92,0,28.87-12.95,28.87-28.87c0-8.05-6.33-21.6-18.81-40.27c-2.25-3.37-6.01-5.37-10.06-5.37
                                    c-4.05,0-7.81,2.01-10.06,5.37c-12.48,18.67-18.81,32.21-18.81,40.27C259.93,308.25,272.88,321.2,288.8,321.2z M288.8,267.44
                                    c9.42,14.93,12.05,22.73,12.05,24.89c0,6.65-5.41,12.05-12.05,12.05c-6.65,0-12.05-5.41-12.05-12.05
                                    C276.75,290.17,279.37,282.38,288.8,267.44z"/>
                            </g>
                            </svg>