<svg width="170" height="140" viewBox="0 0 170 140" fill="none" xmlns="http://www.w3.org/2000/svg">
<path d="M147.951 42.2185C147.951 42.2185 122.631 12.2666 89.1573 11.2062C55.6839 10.1459 45.5988 30.2907 25.8582 43.8089C6.11753 57.327 -0.320028 87.0137 15.1293 107.159C30.5787 127.303 83.0781 113.596 98.6703 116.209C114.262 118.821 145.376 132.34 155.246 105.038C165.117 77.7367 157.821 54.6762 147.951 42.2185Z" fill="#92E3A9"/>
<path opacity="0.7" d="M147.951 42.2185C147.951 42.2185 122.631 12.2666 89.1573 11.2062C55.6839 10.1459 45.5988 30.2907 25.8582 43.8089C6.11753 57.327 -0.320028 87.0137 15.1293 107.159C30.5787 127.303 83.0781 113.596 98.6703 116.209C114.262 118.821 145.376 132.34 155.246 105.038C165.117 77.7367 157.821 54.6762 147.951 42.2185Z" fill="#6ABA7F"/>
<g opacity="0.3">
<path d="M38.019 76.8092C38.0471 76.8293 38.5117 74.2309 38.5258 74.0626C38.6885 72.1172 38.0777 68.2398 36.4547 67.3572C35.2858 66.7213 34.0242 67.6025 33.6457 69.0425C33.2594 70.5134 33.8528 72.2712 34.5301 73.469C35.3253 74.8749 38.0169 76.8075 38.019 76.8092Z" fill="black"/>
<path d="M6.53397 77.3361C7.82507 77.9666 10.9333 77.7446 10.9356 77.7443C10.9678 77.7421 10.1953 75.2585 10.1321 75.1084C9.39904 73.3746 7.15776 70.557 5.40993 70.9266C4.1508 71.1931 3.49211 72.7877 3.81987 74.2465C4.1542 75.7367 5.43419 76.7987 6.53397 77.3361Z" fill="black"/>
<path d="M7.92583 88.4185C9.25138 88.5986 11.999 87.483 12.2173 87.3934C12.7103 89.2938 13.3411 91.1944 14.0653 93.0744C14.4783 94.1498 14.9212 95.2172 15.3766 96.2804C15.1103 95.8329 14.8695 95.4359 14.831 95.3846C13.7534 93.9513 10.9892 91.965 9.38262 92.8918C8.22503 93.5593 7.93059 95.3124 8.55845 96.6124C9.1997 97.9405 10.6612 98.5472 11.837 98.7068C13.0299 98.8687 15.3877 97.9758 16.009 97.7291C16.1871 98.1348 16.3612 98.5425 16.5405 98.9468C17.4009 100.889 18.2664 102.822 19.0679 104.751C19.351 105.43 19.6091 106.112 19.8696 106.793C19.6325 106.396 19.4303 106.065 19.3954 106.018C18.3178 104.585 15.5536 102.598 13.9472 103.525C12.7896 104.193 12.4952 105.945 13.1233 107.246C13.7645 108.573 15.2261 109.18 16.4016 109.34C17.5399 109.494 19.7222 108.694 20.4616 108.406C20.7112 109.113 20.9626 109.821 21.1786 110.521C21.3173 111.002 21.4782 111.454 21.5956 111.948C21.7205 112.433 21.8438 112.914 21.9665 113.39C22.1748 114.317 22.3944 115.272 22.5791 116.184C22.7117 116.816 22.8285 117.421 22.9475 118.031C22.6725 117.351 22.1113 116.033 22.0542 115.929C21.165 114.311 18.6764 111.83 16.9744 112.446C15.7485 112.889 15.2422 114.566 15.7034 115.969C16.1747 117.402 17.5449 118.275 18.6873 118.653C19.9451 119.068 22.688 118.519 23.0302 118.447C23.2242 119.457 23.4056 120.442 23.5642 121.374C24.1198 124.596 24.4836 127.306 24.7168 129.208L25.9184 129.155C25.9105 129.098 25.9034 129.047 25.8953 128.988C25.6251 127.069 25.2089 124.337 24.5897 121.091C24.3959 120.064 24.1722 118.972 23.9339 117.854C24.1379 117.743 25.2964 117.105 26.3169 116.341C27.2585 117.514 29.623 118.833 29.9293 119.001C29.6403 119.975 29.3517 120.92 29.0677 121.805C28.0915 124.874 27.1837 127.384 26.529 129.129L27.848 129.072C28.4528 127.339 29.2277 125.024 30.0494 122.268C30.3461 121.28 30.6474 120.217 30.9479 119.121C31.2838 119.193 34.0308 119.758 35.2917 119.348C36.4353 118.977 37.8084 118.11 38.2842 116.68C38.75 115.279 38.2493 113.599 37.0246 113.15C35.3248 112.526 32.8283 114.995 31.9337 116.608C31.8809 116.704 31.4017 117.815 31.1086 118.523C31.2297 118.075 31.3512 117.641 31.4711 117.178C31.7134 116.264 31.9335 115.342 32.173 114.352C32.2753 113.869 32.3784 113.381 32.4824 112.888C32.5942 112.402 32.6624 111.871 32.7549 111.358C32.9494 110.163 33.0994 108.941 33.2286 107.705C33.8773 107.965 36.1916 108.848 37.3732 108.694C38.549 108.54 40.0128 107.94 40.6583 106.615C41.2903 105.318 41.0017 103.564 39.8464 102.891C38.2427 101.956 35.4722 103.929 34.3901 105.357C34.3225 105.446 33.6393 106.578 33.2735 107.209C33.3465 106.465 33.4222 105.724 33.4761 104.968C33.6323 102.788 33.7352 100.576 33.8461 98.3692C33.8796 97.693 33.9197 97.0204 33.9578 96.3462C34.1877 96.4419 36.9204 97.5644 38.2434 97.3917C39.4194 97.238 40.8829 96.6385 41.5287 95.3138C42.1607 94.0166 41.8721 92.2624 40.7168 91.589C39.1131 90.6543 36.3426 92.6272 35.2605 94.0549C35.1789 94.1624 34.1976 95.7934 33.9646 96.2235C34.0489 94.7392 34.1439 93.2611 34.2856 91.8088C34.4789 89.8042 34.7579 87.851 35.1417 85.9834C35.2489 86.0282 38.0965 87.2159 39.4518 87.039C40.6279 86.8852 42.0913 86.2858 42.7371 84.9608C43.3692 83.6638 43.0805 81.9094 41.9252 81.2362C40.3215 80.3016 37.5509 82.2742 36.4688 83.7019C36.3979 83.7957 35.6494 85.037 35.3047 85.6378C35.2541 85.6082 35.2632 85.6138 35.2129 85.5841C35.6435 83.5896 36.2642 81.7243 36.9145 80.014C37.2898 79.0223 37.6933 78.1005 38.1024 77.2143C38.6145 77.5027 40.9661 78.7885 42.1999 78.7958C43.3826 78.8025 44.8904 78.4052 45.6502 77.1762C46.3939 75.9725 46.2626 74.1895 45.1742 73.3635C43.6635 72.2169 40.7342 73.802 39.5318 75.074C39.4665 75.1432 38.8645 75.9378 38.4329 76.5238C38.6224 76.1276 38.8121 75.7141 38.9998 75.3386C39.7015 73.9274 40.4146 72.6884 41.0534 71.5975C41.4208 70.981 41.7626 70.4322 42.0868 69.9228C42.7087 69.882 45.2134 69.6787 46.2917 68.9952C47.3436 68.328 48.5338 67.117 48.7494 65.5938C48.9602 64.1022 48.1789 62.5947 46.9048 62.4813C45.1363 62.3239 43.1281 65.3978 42.5351 67.2116C42.4841 67.3684 41.9109 69.9332 41.9435 69.9315C41.9435 69.9315 41.9737 69.9296 41.9809 69.9293C41.6609 70.4117 41.3222 70.9331 40.9614 71.5124C40.3022 72.5884 39.5651 73.8115 38.8357 75.2095C38.1038 76.6042 37.3404 78.145 36.6549 79.8575C35.9661 81.5731 35.3122 83.4208 34.838 85.4323C34.8325 85.455 34.8293 85.4796 34.8241 85.5023C34.8148 84.8608 34.7405 83.068 34.7221 82.9308C34.4633 81.0013 33.0453 77.4607 31.2913 77.1384C30.0276 76.9069 28.9993 78.168 28.9424 79.6806C28.8843 81.225 29.8323 82.7272 30.7416 83.6613C31.7671 84.715 34.5567 85.6569 34.779 85.7308C34.3416 87.6519 34.019 89.667 33.7833 91.7287C33.6475 92.9069 33.5405 94.0992 33.4453 95.2962C33.4231 94.7418 33.3995 94.2462 33.3902 94.1773C33.1314 92.2475 31.7134 88.7072 29.9594 88.3852C28.6957 88.1534 27.6674 89.4148 27.6105 90.927C27.5522 92.4718 28.5004 93.9737 29.4098 94.9081C30.3323 95.8556 32.6976 96.718 33.3261 96.9356C33.2935 97.3953 33.2567 97.854 33.2257 98.3137C33.0759 100.52 32.9344 102.722 32.7418 104.877C32.6742 105.636 32.5849 106.381 32.4981 107.127C32.4777 106.634 32.4573 106.22 32.4489 106.157C32.19 104.227 30.772 100.687 29.0178 100.365C27.7542 100.133 26.7258 101.394 26.6689 102.907C26.6109 104.451 27.559 105.953 28.4682 106.887C29.3485 107.792 31.5259 108.612 32.2716 108.875C32.1637 109.635 32.0572 110.397 31.9248 111.128C31.8253 111.624 31.7576 112.11 31.6354 112.602C31.5227 113.092 31.411 113.577 31.3006 114.058C31.0601 114.973 30.8169 115.92 30.5642 116.805C30.3921 117.423 30.2192 118.008 30.0462 118.597C30.1208 117.842 30.2412 116.361 30.2398 116.236C30.2271 114.936 29.7935 112.842 29.0081 111.39C29.007 111.198 28.9925 111.007 28.9625 110.818C28.7254 109.333 27.5577 108.273 26.3355 108.733C24.6391 109.37 23.6592 113.131 23.6338 115.086C23.6322 115.202 23.7293 116.455 23.8011 117.246C23.7018 116.789 23.6096 116.345 23.5026 115.876C23.2963 114.949 23.0685 114.03 22.826 113.041C22.6954 112.569 22.5633 112.091 22.43 111.61C22.3062 111.128 22.1258 110.639 21.9742 110.148C21.6027 109.019 21.1817 107.897 20.7377 106.778C21.3948 106.553 23.7195 105.712 24.6359 104.778C25.548 103.848 26.5009 102.351 26.4479 100.806C26.3958 99.2934 25.3717 98.027 24.1071 98.2527C22.3523 98.566 20.9222 102.099 20.6575 104.028C20.6409 104.148 20.5768 105.558 20.5537 106.333C20.2821 105.663 20.0144 104.993 19.722 104.327C18.8786 102.402 17.9765 100.487 17.0834 98.5705C16.8094 97.9836 16.5426 97.3953 16.2731 96.8073C16.5077 96.7303 19.2884 95.8046 20.3145 94.7586C21.2269 93.829 22.1798 92.3312 22.1267 90.7865C22.0748 89.2739 21.0505 88.0075 19.7862 88.2332C18.0311 88.5465 16.6015 92.0801 16.3363 94.0082C16.3163 94.1535 16.2264 96.1826 16.2239 96.6998C15.6314 95.4048 15.0504 94.107 14.52 92.7991C13.7861 90.9956 13.1464 89.1762 12.6328 87.3565C12.742 87.3209 15.6477 86.3709 16.699 85.2996C17.6113 84.37 18.5642 82.8726 18.5109 81.3275C18.459 79.815 17.4345 78.5485 16.1701 78.7742C14.4151 79.0875 12.9853 82.6208 12.7205 84.5489C12.7031 84.6758 12.633 86.2225 12.614 86.9583C12.5589 86.9681 12.5689 86.9662 12.5138 86.976C11.982 85.0185 11.6667 83.0397 11.4455 81.1693C11.3156 80.0866 11.2404 79.0424 11.1857 78.0246C11.7418 77.9163 14.2773 77.3862 15.3097 76.5513C16.2991 75.751 17.3794 74.3919 17.4642 72.8494C17.5467 71.3385 16.6414 69.9408 15.3646 69.9937C13.5925 70.067 11.8574 73.385 11.4224 75.2658C11.3986 75.368 11.2515 76.4407 11.1529 77.2236C11.1341 76.7641 11.1075 76.2898 11.0967 75.8488C11.0516 74.1934 11.093 72.6741 11.1386 71.329C11.1694 70.564 11.2098 69.8736 11.2528 69.2279C11.7533 68.7698 13.7516 66.8935 14.3457 65.5887C14.9251 64.3153 15.377 62.4942 14.8766 61.0768C14.3863 59.6891 13.0612 58.9639 11.9478 59.7376C10.4024 60.8114 10.1002 64.744 10.4158 66.6608C10.4432 66.8266 11.1107 69.3564 11.137 69.3329C11.137 69.3329 11.1615 69.3108 11.1672 69.3054C11.1157 69.9259 11.0661 70.592 11.0239 71.3206C10.9545 72.6671 10.8861 74.1898 10.9022 75.853C10.9147 77.5148 10.9659 79.3205 11.1592 81.2155C11.3508 83.1159 11.6305 85.1028 12.1332 87.1039C12.1391 87.1266 12.1473 87.149 12.1529 87.1717C11.8587 86.643 10.996 85.1982 10.9196 85.0963C9.84207 83.6633 7.07787 81.6767 5.47126 82.6035C4.31367 83.2713 4.01923 85.0241 4.64732 86.3244C5.28856 87.6522 6.75011 88.2592 7.92583 88.4185Z" fill="black"/>
<path opacity="0.3" d="M6.53397 77.3361C7.82507 77.9666 10.9333 77.7446 10.9356 77.7443C10.9678 77.7421 10.1953 75.2585 10.1321 75.1084C9.39904 73.3746 7.15776 70.557 5.40993 70.9266C4.1508 71.1931 3.49211 72.7877 3.81987 74.2465C4.1542 75.7367 5.43419 76.7987 6.53397 77.3361Z" fill="black"/>
<path opacity="0.3" d="M38.019 76.8092C38.0471 76.8293 38.5117 74.2309 38.5258 74.0626C38.6885 72.1172 38.0777 68.2398 36.4547 67.3572C35.2858 66.7213 34.0242 67.6025 33.6457 69.0425C33.2594 70.5134 33.8528 72.2712 34.5301 73.469C35.3253 74.8749 38.0169 76.8075 38.019 76.8092Z" fill="black"/>
<path opacity="0.3" d="M7.92583 88.4185C9.25138 88.5986 11.999 87.483 12.2173 87.3934C12.7103 89.2938 13.3411 91.1944 14.0653 93.0744C14.4783 94.1498 14.9212 95.2172 15.3766 96.2804C15.1103 95.8329 14.8695 95.4359 14.831 95.3846C13.7534 93.9513 10.9892 91.965 9.38262 92.8918C8.22503 93.5593 7.93059 95.3124 8.55845 96.6124C9.1997 97.9405 10.6612 98.5472 11.837 98.7068C13.0299 98.8687 15.3877 97.9758 16.009 97.7291C16.1871 98.1348 16.3612 98.5425 16.5405 98.9468C17.4009 100.889 18.2664 102.822 19.0679 104.751C19.351 105.43 19.6091 106.112 19.8696 106.793C19.6325 106.396 19.4303 106.065 19.3954 106.018C18.3178 104.585 15.5536 102.598 13.9472 103.525C12.7896 104.193 12.4952 105.945 13.1233 107.246C13.7645 108.573 15.2261 109.18 16.4016 109.34C17.5399 109.494 19.7222 108.694 20.4616 108.406C20.7112 109.113 20.9626 109.821 21.1786 110.521C21.3173 111.002 21.4782 111.454 21.5956 111.948C21.7205 112.433 21.8438 112.914 21.9665 113.39C22.1748 114.317 22.3944 115.272 22.5791 116.184C22.7117 116.816 22.8285 117.421 22.9475 118.031C22.6725 117.351 22.1113 116.033 22.0542 115.929C21.165 114.311 18.6764 111.83 16.9744 112.446C15.7485 112.889 15.2422 114.566 15.7034 115.969C16.1747 117.402 17.5449 118.275 18.6873 118.653C19.9451 119.068 22.688 118.519 23.0302 118.447C23.2242 119.457 23.4056 120.442 23.5642 121.374C24.1198 124.596 24.4836 127.306 24.7168 129.208L25.9184 129.155C25.9105 129.098 25.9034 129.047 25.8953 128.988C25.6251 127.069 25.2089 124.337 24.5897 121.091C24.3959 120.064 24.1722 118.972 23.9339 117.854C24.1379 117.743 25.2964 117.105 26.3169 116.341C27.2585 117.514 29.623 118.833 29.9293 119.001C29.6403 119.975 29.3517 120.92 29.0677 121.805C28.0915 124.874 27.1837 127.384 26.529 129.129L27.848 129.072C28.4528 127.339 29.2277 125.024 30.0494 122.268C30.3461 121.28 30.6474 120.217 30.9479 119.121C31.2838 119.193 34.0308 119.758 35.2917 119.348C36.4353 118.977 37.8084 118.11 38.2842 116.68C38.75 115.279 38.2493 113.599 37.0246 113.15C35.3248 112.526 32.8283 114.995 31.9337 116.608C31.8809 116.704 31.4017 117.815 31.1086 118.523C31.2297 118.075 31.3512 117.641 31.4711 117.178C31.7134 116.264 31.9335 115.342 32.173 114.352C32.2753 113.869 32.3784 113.381 32.4824 112.888C32.5942 112.402 32.6624 111.871 32.7549 111.358C32.9494 110.163 33.0994 108.941 33.2286 107.705C33.8773 107.965 36.1916 108.848 37.3732 108.694C38.549 108.54 40.0128 107.94 40.6583 106.615C41.2903 105.318 41.0017 103.564 39.8464 102.891C38.2427 101.956 35.4722 103.929 34.3901 105.357C34.3225 105.446 33.6393 106.578 33.2735 107.209C33.3465 106.465 33.4222 105.724 33.4761 104.968C33.6323 102.788 33.7352 100.576 33.8461 98.3692C33.8796 97.693 33.9197 97.0204 33.9578 96.3462C34.1877 96.4419 36.9204 97.5644 38.2434 97.3917C39.4194 97.238 40.8829 96.6385 41.5287 95.3138C42.1607 94.0166 41.8721 92.2624 40.7168 91.589C39.1131 90.6543 36.3426 92.6272 35.2605 94.0549C35.1789 94.1624 34.1976 95.7934 33.9646 96.2235C34.0489 94.7392 34.1439 93.2611 34.2856 91.8088C34.4789 89.8042 34.7579 87.851 35.1417 85.9834C35.2489 86.0282 38.0965 87.2159 39.4518 87.039C40.6279 86.8852 42.0913 86.2858 42.7371 84.9608C43.3692 83.6638 43.0805 81.9094 41.9252 81.2362C40.3215 80.3016 37.5509 82.2742 36.4688 83.7019C36.3979 83.7957 35.6494 85.037 35.3047 85.6378C35.2541 85.6082 35.2632 85.6138 35.2129 85.5841C35.6435 83.5896 36.2642 81.7243 36.9145 80.014C37.2898 79.0223 37.6933 78.1005 38.1024 77.2143C38.6145 77.5027 40.9661 78.7885 42.1999 78.7958C43.3826 78.8025 44.8904 78.4052 45.6502 77.1762C46.3939 75.9725 46.2626 74.1895 45.1742 73.3635C43.6635 72.2169 40.7342 73.802 39.5318 75.074C39.4665 75.1432 38.8645 75.9378 38.4329 76.5238C38.6224 76.1276 38.8121 75.7141 38.9998 75.3386C39.7015 73.9274 40.4146 72.6884 41.0534 71.5975C41.4208 70.981 41.7626 70.4322 42.0868 69.9228C42.7087 69.882 45.2134 69.6787 46.2917 68.9952C47.3436 68.328 48.5338 67.117 48.7494 65.5938C48.9602 64.1022 48.1789 62.5947 46.9048 62.4813C45.1363 62.3239 43.1281 65.3978 42.5351 67.2116C42.4841 67.3684 41.9109 69.9332 41.9435 69.9315C41.9435 69.9315 41.9737 69.9296 41.9809 69.9293C41.6609 70.4117 41.3222 70.9331 40.9614 71.5124C40.3022 72.5884 39.5651 73.8115 38.8357 75.2095C38.1038 76.6042 37.3404 78.145 36.6549 79.8575C35.9661 81.5731 35.3122 83.4208 34.838 85.4323C34.8325 85.455 34.8293 85.4796 34.8241 85.5023C34.8148 84.8608 34.7405 83.068 34.7221 82.9308C34.4633 81.0013 33.0453 77.4607 31.2913 77.1384C30.0276 76.9069 28.9993 78.168 28.9424 79.6806C28.8843 81.225 29.8323 82.7272 30.7416 83.6613C31.7671 84.715 34.5567 85.6569 34.779 85.7308C34.3416 87.6519 34.019 89.667 33.7833 91.7287C33.6475 92.9069 33.5405 94.0992 33.4453 95.2962C33.4231 94.7418 33.3995 94.2462 33.3902 94.1773C33.1314 92.2475 31.7134 88.7072 29.9594 88.3852C28.6957 88.1534 27.6674 89.4148 27.6105 90.927C27.5522 92.4718 28.5004 93.9737 29.4098 94.9081C30.3323 95.8556 32.6976 96.718 33.3261 96.9356C33.2935 97.3953 33.2567 97.854 33.2257 98.3137C33.0759 100.52 32.9344 102.722 32.7418 104.877C32.6742 105.636 32.5849 106.381 32.4981 107.127C32.4777 106.634 32.4573 106.22 32.4489 106.157C32.19 104.227 30.772 100.687 29.0178 100.365C27.7542 100.133 26.7258 101.394 26.6689 102.907C26.6109 104.451 27.559 105.953 28.4682 106.887C29.3485 107.792 31.5259 108.612 32.2716 108.875C32.1637 109.635 32.0572 110.397 31.9248 111.128C31.8253 111.624 31.7576 112.11 31.6354 112.602C31.5227 113.092 31.411 113.577 31.3006 114.058C31.0601 114.973 30.8169 115.92 30.5642 116.805C30.3921 117.423 30.2192 118.008 30.0462 118.597C30.1208 117.842 30.2412 116.361 30.2398 116.236C30.2271 114.936 29.7935 112.842 29.0081 111.39C29.007 111.198 28.9925 111.007 28.9625 110.818C28.7254 109.333 27.5577 108.273 26.3355 108.733C24.6391 109.37 23.6592 113.131 23.6338 115.086C23.6322 115.202 23.7293 116.455 23.8011 117.246C23.7018 116.789 23.6096 116.345 23.5026 115.876C23.2963 114.949 23.0685 114.03 22.826 113.041C22.6954 112.569 22.5633 112.091 22.43 111.61C22.3062 111.128 22.1258 110.639 21.9742 110.148C21.6027 109.019 21.1817 107.897 20.7377 106.778C21.3948 106.553 23.7195 105.712 24.6359 104.778C25.548 103.848 26.5009 102.351 26.4479 100.806C26.3958 99.2934 25.3717 98.027 24.1071 98.2527C22.3523 98.566 20.9222 102.099 20.6575 104.028C20.6409 104.148 20.5768 105.558 20.5537 106.333C20.2821 105.663 20.0144 104.993 19.722 104.327C18.8786 102.402 17.9765 100.487 17.0834 98.5705C16.8094 97.9836 16.5426 97.3953 16.2731 96.8073C16.5077 96.7303 19.2884 95.8046 20.3145 94.7586C21.2269 93.829 22.1798 92.3312 22.1267 90.7865C22.0748 89.2739 21.0505 88.0075 19.7862 88.2332C18.0311 88.5465 16.6015 92.0801 16.3363 94.0082C16.3163 94.1535 16.2264 96.1826 16.2239 96.6998C15.6314 95.4048 15.0504 94.107 14.52 92.7991C13.7861 90.9956 13.1464 89.1762 12.6328 87.3565C12.742 87.3209 15.6477 86.3709 16.699 85.2996C17.6113 84.37 18.5642 82.8726 18.5109 81.3275C18.459 79.815 17.4345 78.5485 16.1701 78.7742C14.4151 79.0875 12.9853 82.6208 12.7205 84.5489C12.7031 84.6758 12.633 86.2225 12.614 86.9583C12.5589 86.9681 12.5689 86.9662 12.5138 86.976C11.982 85.0185 11.6667 83.0397 11.4455 81.1693C11.3156 80.0866 11.2404 79.0424 11.1857 78.0246C11.7418 77.9163 14.2773 77.3862 15.3097 76.5513C16.2991 75.751 17.3794 74.3919 17.4642 72.8494C17.5467 71.3385 16.6414 69.9408 15.3646 69.9937C13.5925 70.067 11.8574 73.385 11.4224 75.2658C11.3986 75.368 11.2515 76.4407 11.1529 77.2236C11.1341 76.7641 11.1075 76.2898 11.0967 75.8488C11.0516 74.1934 11.093 72.6741 11.1386 71.329C11.1694 70.564 11.2098 69.8736 11.2528 69.2279C11.7533 68.7698 13.7516 66.8935 14.3457 65.5887C14.9251 64.3153 15.377 62.4942 14.8766 61.0768C14.3863 59.6891 13.0612 58.9639 11.9478 59.7376C10.4024 60.8114 10.1002 64.744 10.4158 66.6608C10.4432 66.8266 11.1107 69.3564 11.137 69.3329C11.137 69.3329 11.1615 69.3108 11.1672 69.3054C11.1157 69.9259 11.0661 70.592 11.0239 71.3206C10.9545 72.6671 10.8861 74.1898 10.9022 75.853C10.9147 77.5148 10.9659 79.3205 11.1592 81.2155C11.3508 83.1159 11.6305 85.1028 12.1332 87.1039C12.1391 87.1266 12.1473 87.149 12.1529 87.1717C11.8587 86.643 10.996 85.1982 10.9196 85.0963C9.84207 83.6633 7.07787 81.6767 5.47126 82.6035C4.31367 83.2713 4.01923 85.0241 4.64732 86.3244C5.28856 87.6522 6.75011 88.2592 7.92583 88.4185Z" fill="black"/>
</g>
<g opacity="0.3">
<path d="M149.742 57.5714C149.782 57.5997 150.439 53.9249 150.459 53.6872C150.689 50.9359 149.825 45.4521 147.53 44.2039C145.877 43.3045 144.093 44.5505 143.558 46.5873C143.011 48.6674 143.851 51.1535 144.808 52.8475C145.933 54.8361 149.739 57.5691 149.742 57.5714Z" fill="black"/>
<path d="M105.215 58.3163C107.041 59.2081 111.436 58.8942 111.439 58.8936C111.485 58.8903 110.393 55.378 110.303 55.1657C109.266 52.7138 106.097 48.7288 103.625 49.2518C101.844 49.6287 100.912 51.8838 101.376 53.9472C101.849 56.0544 103.66 57.5561 105.215 58.3163Z" fill="black"/>
<path d="M107.183 73.9899C109.057 74.2447 112.943 72.6672 113.252 72.5401C113.949 75.2278 114.841 77.9155 115.865 80.5744C116.449 82.0954 117.076 83.6051 117.72 85.1084C117.343 84.4759 117.002 83.914 116.948 83.8417C115.424 81.8148 111.515 79.0056 109.243 80.3162C107.606 81.2604 107.189 83.7395 108.077 85.5783C108.984 87.4565 111.051 88.3144 112.714 88.5401C114.401 88.7689 117.735 87.5064 118.614 87.1572C118.866 87.7309 119.112 88.3074 119.366 88.8795C120.583 91.6257 121.806 94.3602 122.94 97.088C123.34 98.0486 123.705 99.013 124.074 99.9764C123.739 99.4153 123.453 98.946 123.403 98.8802C121.879 96.8536 117.97 94.0438 115.698 95.3545C114.061 96.2989 113.645 98.778 114.533 100.617C115.44 102.495 117.507 103.353 119.169 103.578C120.779 103.797 123.866 102.666 124.911 102.257C125.264 103.258 125.62 104.259 125.925 105.248C126.121 105.93 126.349 106.569 126.515 107.267C126.692 107.953 126.866 108.633 127.039 109.306C127.334 110.618 127.644 111.969 127.906 113.257C128.094 114.152 128.258 115.008 128.427 115.87C128.038 114.908 127.244 113.044 127.163 112.898C125.906 110.609 122.386 107.101 119.979 107.971C118.246 108.598 117.53 110.97 118.182 112.954C118.849 114.981 120.786 116.216 122.402 116.75C124.181 117.338 128.06 116.56 128.544 116.459C128.819 117.887 129.075 119.28 129.299 120.598C130.085 125.155 130.599 128.988 130.929 131.677L132.628 131.603C132.617 131.522 132.607 131.449 132.596 131.366C132.214 128.653 131.625 124.788 130.749 120.197C130.475 118.746 130.159 117.202 129.822 115.62C130.111 115.464 131.749 114.561 133.192 113.48C134.524 115.14 137.868 117.004 138.301 117.242C137.892 118.62 137.484 119.956 137.082 121.208C135.702 125.547 134.418 129.097 133.492 131.565L135.357 131.484C136.213 129.034 137.309 125.76 138.471 121.862C138.89 120.464 139.316 118.961 139.742 117.412C140.216 117.513 144.102 118.313 145.885 117.733C147.502 117.207 149.444 115.981 150.117 113.959C150.776 111.978 150.068 109.602 148.336 108.967C145.932 108.084 142.401 111.575 141.136 113.858C141.061 113.992 140.384 115.565 139.969 116.566C140.141 115.931 140.312 115.318 140.482 114.663C140.825 113.37 141.136 112.067 141.475 110.667C141.619 109.983 141.765 109.293 141.912 108.596C142.07 107.909 142.167 107.158 142.298 106.432C142.572 104.743 142.785 103.014 142.968 101.266C143.885 101.634 147.158 102.882 148.829 102.664C150.492 102.446 152.562 101.598 153.475 99.725C154.369 97.8904 153.96 95.4096 152.327 94.4571C150.059 93.1355 146.14 95.9254 144.61 97.9448C144.514 98.0705 143.548 99.6718 143.031 100.564C143.134 99.5122 143.241 98.4636 143.318 97.3957C143.538 94.3126 143.684 91.1836 143.841 88.063C143.888 87.1068 143.945 86.1554 143.999 85.202C144.324 85.3375 148.189 86.9251 150.06 86.6806C151.723 86.4634 153.793 85.6152 154.706 83.7418C155.6 81.9072 155.191 79.4261 153.558 78.4738C151.29 77.152 147.371 79.9419 145.841 81.9612C145.726 82.1133 144.338 84.4199 144.008 85.0281C144.128 82.9289 144.262 80.8387 144.462 78.7846C144.736 75.9499 145.13 73.1872 145.673 70.5459C145.825 70.6095 149.852 72.2889 151.769 72.0386C153.432 71.8213 155.502 70.9732 156.415 69.0994C157.309 67.2652 156.9 64.7841 155.266 63.8318C152.998 62.5099 149.081 65.2998 147.55 67.3189C147.449 67.4516 146.391 69.207 145.903 70.057C145.832 70.0153 145.845 70.0229 145.774 69.9812C146.383 67.1604 147.26 64.5226 148.18 62.1036C148.711 60.7011 149.282 59.3974 149.86 58.1442C150.584 58.5518 153.91 60.3704 155.655 60.3808C157.328 60.3903 159.46 59.8284 160.534 58.0904C161.586 56.388 161.401 53.8666 159.861 52.6984C157.725 51.0767 153.582 53.3186 151.881 55.1176C151.789 55.2156 150.938 56.3393 150.327 57.1678C150.595 56.6075 150.864 56.0226 151.129 55.4914C152.121 53.4956 153.13 51.7436 154.033 50.2006C154.553 49.3284 155.036 48.5525 155.495 47.832C156.374 47.7744 159.917 47.4865 161.442 46.52C162.929 45.5764 164.613 43.8639 164.917 41.7096C165.216 39.6003 164.111 37.4681 162.309 37.3077C159.808 37.0851 156.967 41.4324 156.129 43.9974C156.057 44.2192 155.246 47.8466 155.292 47.8441C155.292 47.8441 155.335 47.8413 155.345 47.8407C154.892 48.5228 154.414 49.2603 153.903 50.0793C152.971 51.6011 151.929 53.331 150.897 55.308C149.862 57.2804 148.782 59.4596 147.813 61.8813C146.839 64.3075 145.914 66.9208 145.244 69.7656C145.236 69.7978 145.231 69.8325 145.224 69.8647C145.211 68.9575 145.106 66.4218 145.08 66.228C144.714 63.4992 142.708 58.4919 140.228 58.0364C138.441 57.7088 136.986 59.4924 136.906 61.6316C136.824 63.8156 138.164 65.9402 139.45 67.2612C140.901 68.7514 144.846 70.0834 145.16 70.1878C144.541 72.9046 144.085 75.7545 143.752 78.6701C143.56 80.3364 143.408 82.0226 143.274 83.7152C143.242 82.9312 143.209 82.2303 143.196 82.1329C142.83 79.4037 140.824 74.3968 138.344 73.9415C136.557 73.6136 135.102 75.3972 135.022 77.5361C134.939 79.7207 136.28 81.845 137.567 83.1661C138.871 84.5062 142.216 85.7256 143.105 86.0336C143.059 86.6837 143.007 87.3322 142.963 87.9824C142.751 91.1018 142.551 94.2168 142.279 97.2641C142.183 98.3382 142.057 99.3918 141.934 100.446C141.905 99.7496 141.876 99.1633 141.865 99.0746C141.499 96.3457 139.493 91.3384 137.012 90.8834C135.225 90.5553 133.771 92.3392 133.69 94.4784C133.608 96.6624 134.949 98.787 136.235 100.108C137.48 101.387 140.56 102.547 141.614 102.919C141.461 103.994 141.311 105.071 141.124 106.105C140.983 106.807 140.887 107.494 140.715 108.19C140.555 108.883 140.397 109.569 140.241 110.248C139.901 111.543 139.557 112.881 139.2 114.134C138.956 115.008 138.712 115.835 138.467 116.669C138.572 115.601 138.743 113.505 138.741 113.328C138.723 111.49 138.109 108.528 136.999 106.475C136.997 106.204 136.977 105.934 136.935 105.667C136.599 103.566 134.948 102.067 133.22 102.717C130.82 103.619 129.434 108.937 129.399 111.703C129.396 111.866 129.534 113.639 129.635 114.757C129.495 114.111 129.364 113.482 129.213 112.82C128.921 111.508 128.599 110.209 128.256 108.81C128.071 108.142 127.885 107.467 127.696 106.785C127.521 106.104 127.266 105.413 127.051 104.718C126.526 103.121 125.931 101.535 125.303 99.9526C126.232 99.6343 129.52 98.4448 130.815 97.1244C132.105 95.8098 133.453 93.6918 133.378 91.5073C133.305 89.3678 131.856 87.5769 130.068 87.8961C127.586 88.3391 125.564 93.3362 125.189 96.0634C125.166 96.2337 125.075 98.2276 125.042 99.3243C124.658 98.3768 124.279 97.4287 123.866 96.4862C122.673 93.7646 121.397 91.0556 120.135 88.3458C119.747 87.5159 119.37 86.6837 118.988 85.8521C119.32 85.7432 123.253 84.4339 124.704 82.9547C125.994 81.6401 127.342 79.5222 127.267 77.3373C127.193 75.1981 125.745 73.4072 123.957 73.7262C121.475 74.1691 119.453 79.1666 119.078 81.8935C119.05 82.099 118.922 84.9687 118.919 85.7001C118.081 83.8683 117.259 82.0335 116.509 80.1838C115.471 77.6333 114.567 75.0601 113.84 72.4869C113.995 72.4368 118.104 71.0933 119.591 69.578C120.881 68.2634 122.228 66.1457 122.153 63.9606C122.08 61.8214 120.631 60.0302 118.843 60.3494C116.361 60.7924 114.339 65.7898 113.964 68.5165C113.939 68.6957 113.841 70.8833 113.814 71.9241C113.736 71.9381 113.75 71.9353 113.672 71.949C112.92 69.1806 112.474 66.3823 112.161 63.7369C111.977 62.2056 111.871 60.7291 111.794 59.2896C112.58 59.1365 116.166 58.3869 117.626 57.2059C119.025 56.0738 120.553 54.1522 120.673 51.9704C120.79 49.8338 119.509 47.857 117.704 47.9317C115.197 48.0353 112.744 52.7281 112.128 55.3876C112.095 55.532 111.887 57.0491 111.747 58.1562C111.721 57.5063 111.683 56.8357 111.668 56.2119C111.604 53.8708 111.663 51.7224 111.727 49.8198C111.771 48.7381 111.828 47.7615 111.889 46.8481C112.596 46.2005 115.423 43.5466 116.263 41.7014C117.082 39.9005 117.721 37.3248 117.014 35.3208C116.321 33.3583 114.446 32.3329 112.872 33.4269C110.686 34.9456 110.259 40.507 110.705 43.2179C110.744 43.4523 111.688 47.0301 111.725 46.9965C111.725 46.9965 111.76 46.9652 111.768 46.9576C111.695 47.8348 111.625 48.777 111.565 49.8074C111.467 51.7117 111.37 53.8652 111.393 56.2172C111.41 58.5675 111.483 61.1211 111.756 63.8013C112.027 66.4887 112.423 69.2988 113.134 72.1288C113.142 72.1607 113.154 72.1926 113.162 72.2245C112.746 71.4769 111.525 69.4335 111.417 69.2896C109.893 67.2629 105.984 64.4534 103.712 65.7638C102.075 66.7082 101.658 69.1871 102.547 71.0261C103.453 72.9063 105.52 73.7645 107.183 73.9899Z" fill="black"/>
<path opacity="0.3" d="M105.215 58.3163C107.041 59.2081 111.436 58.8942 111.439 58.8936C111.485 58.8903 110.393 55.378 110.303 55.1657C109.266 52.7138 106.097 48.7288 103.625 49.2518C101.844 49.6287 100.912 51.8838 101.376 53.9472C101.849 56.0544 103.66 57.5561 105.215 58.3163Z" fill="black"/>
<path opacity="0.3" d="M149.742 57.5714C149.782 57.5997 150.439 53.9249 150.459 53.6872C150.689 50.9359 149.825 45.4521 147.53 44.2039C145.877 43.3045 144.093 44.5505 143.558 46.5873C143.011 48.6674 143.851 51.1535 144.808 52.8475C145.933 54.8361 149.739 57.5691 149.742 57.5714Z" fill="black"/>
<path opacity="0.3" d="M107.183 73.9899C109.057 74.2447 112.943 72.6672 113.252 72.5401C113.949 75.2278 114.841 77.9155 115.865 80.5744C116.449 82.0954 117.076 83.6051 117.72 85.1084C117.343 84.4759 117.002 83.914 116.948 83.8417C115.424 81.8148 111.515 79.0056 109.243 80.3162C107.606 81.2604 107.189 83.7395 108.077 85.5783C108.984 87.4565 111.051 88.3144 112.714 88.5401C114.401 88.7689 117.735 87.5064 118.614 87.1572C118.866 87.7309 119.112 88.3074 119.366 88.8795C120.583 91.6257 121.806 94.3602 122.94 97.088C123.34 98.0486 123.705 99.013 124.074 99.9764C123.739 99.4153 123.453 98.946 123.403 98.8802C121.879 96.8536 117.97 94.0438 115.698 95.3545C114.061 96.2989 113.645 98.778 114.533 100.617C115.44 102.495 117.507 103.353 119.169 103.578C120.779 103.797 123.866 102.666 124.911 102.257C125.264 103.258 125.62 104.259 125.925 105.248C126.121 105.93 126.349 106.569 126.515 107.267C126.692 107.953 126.866 108.633 127.039 109.306C127.334 110.618 127.644 111.969 127.906 113.257C128.094 114.152 128.258 115.008 128.427 115.87C128.038 114.908 127.244 113.044 127.163 112.898C125.906 110.609 122.386 107.101 119.979 107.971C118.246 108.598 117.53 110.97 118.182 112.954C118.849 114.981 120.786 116.216 122.402 116.75C124.181 117.338 128.06 116.56 128.544 116.459C128.819 117.887 129.075 119.28 129.299 120.598C130.085 125.155 130.599 128.988 130.929 131.677L132.628 131.603C132.617 131.522 132.607 131.449 132.596 131.366C132.214 128.653 131.625 124.788 130.749 120.197C130.475 118.746 130.159 117.202 129.822 115.62C130.111 115.464 131.749 114.561 133.192 113.48C134.524 115.14 137.868 117.004 138.301 117.242C137.892 118.62 137.484 119.956 137.082 121.208C135.702 125.547 134.418 129.097 133.492 131.565L135.357 131.484C136.213 129.034 137.309 125.76 138.471 121.862C138.89 120.464 139.316 118.961 139.742 117.412C140.216 117.513 144.102 118.313 145.885 117.733C147.502 117.207 149.444 115.981 150.117 113.959C150.776 111.978 150.068 109.602 148.336 108.967C145.932 108.084 142.401 111.575 141.136 113.858C141.061 113.992 140.384 115.565 139.969 116.566C140.141 115.931 140.312 115.318 140.482 114.663C140.825 113.37 141.136 112.067 141.475 110.667C141.619 109.983 141.765 109.293 141.912 108.596C142.07 107.909 142.167 107.158 142.298 106.432C142.572 104.743 142.785 103.014 142.968 101.266C143.885 101.634 147.158 102.882 148.829 102.664C150.492 102.446 152.562 101.598 153.475 99.725C154.369 97.8904 153.96 95.4096 152.327 94.4571C150.059 93.1355 146.14 95.9254 144.61 97.9448C144.514 98.0705 143.548 99.6718 143.031 100.564C143.134 99.5122 143.241 98.4636 143.318 97.3957C143.538 94.3126 143.684 91.1836 143.841 88.063C143.888 87.1068 143.945 86.1554 143.999 85.202C144.324 85.3375 148.189 86.9251 150.06 86.6806C151.723 86.4634 153.793 85.6152 154.706 83.7418C155.6 81.9072 155.191 79.4261 153.558 78.4738C151.29 77.152 147.371 79.9419 145.841 81.9612C145.726 82.1133 144.338 84.4199 144.008 85.0281C144.128 82.9289 144.262 80.8387 144.462 78.7846C144.736 75.9499 145.13 73.1872 145.673 70.5459C145.825 70.6095 149.852 72.2889 151.769 72.0386C153.432 71.8213 155.502 70.9732 156.415 69.0994C157.309 67.2652 156.9 64.7841 155.266 63.8318C152.998 62.5099 149.081 65.2998 147.55 67.3189C147.449 67.4516 146.391 69.207 145.903 70.057C145.832 70.0153 145.845 70.0229 145.774 69.9812C146.383 67.1604 147.26 64.5226 148.18 62.1036C148.711 60.7011 149.282 59.3974 149.86 58.1442C150.584 58.5518 153.91 60.3704 155.655 60.3808C157.328 60.3903 159.46 59.8284 160.534 58.0904C161.586 56.388 161.401 53.8666 159.861 52.6984C157.725 51.0767 153.582 53.3186 151.881 55.1176C151.789 55.2156 150.938 56.3393 150.327 57.1678C150.595 56.6075 150.864 56.0226 151.129 55.4914C152.121 53.4956 153.13 51.7436 154.033 50.2006C154.553 49.3284 155.036 48.5525 155.495 47.832C156.374 47.7744 159.917 47.4865 161.442 46.52C162.929 45.5764 164.613 43.8639 164.917 41.7096C165.216 39.6003 164.111 37.4681 162.309 37.3077C159.808 37.0851 156.967 41.4324 156.129 43.9974C156.057 44.2192 155.246 47.8466 155.292 47.8441C155.292 47.8441 155.335 47.8413 155.345 47.8407C154.892 48.5228 154.414 49.2603 153.903 50.0793C152.971 51.6011 151.929 53.331 150.897 55.308C149.862 57.2804 148.782 59.4596 147.813 61.8813C146.839 64.3075 145.914 66.9208 145.244 69.7656C145.236 69.7978 145.231 69.8325 145.224 69.8647C145.211 68.9575 145.106 66.4218 145.08 66.228C144.714 63.4992 142.708 58.4919 140.228 58.0364C138.441 57.7088 136.986 59.4924 136.906 61.6316C136.824 63.8156 138.164 65.9402 139.45 67.2612C140.901 68.7514 144.846 70.0834 145.16 70.1878C144.541 72.9046 144.085 75.7545 143.752 78.6701C143.56 80.3364 143.408 82.0226 143.274 83.7152C143.242 82.9312 143.209 82.2303 143.196 82.1329C142.83 79.4037 140.824 74.3968 138.344 73.9415C136.557 73.6136 135.102 75.3972 135.022 77.5361C134.939 79.7207 136.28 81.845 137.567 83.1661C138.871 84.5062 142.216 85.7256 143.105 86.0336C143.059 86.6837 143.007 87.3322 142.963 87.9824C142.751 91.1018 142.551 94.2168 142.279 97.2641C142.183 98.3382 142.057 99.3918 141.934 100.446C141.905 99.7496 141.876 99.1633 141.865 99.0746C141.499 96.3457 139.493 91.3384 137.012 90.8834C135.225 90.5553 133.771 92.3392 133.69 94.4784C133.608 96.6624 134.949 98.787 136.235 100.108C137.48 101.387 140.56 102.547 141.614 102.919C141.461 103.994 141.311 105.071 141.124 106.105C140.983 106.807 140.887 107.494 140.715 108.19C140.555 108.883 140.397 109.569 140.241 110.248C139.901 111.543 139.557 112.881 139.2 114.134C138.956 115.008 138.712 115.835 138.467 116.669C138.572 115.601 138.743 113.505 138.741 113.328C138.723 111.49 138.109 108.528 136.999 106.475C136.997 106.204 136.977 105.934 136.935 105.667C136.599 103.566 134.948 102.067 133.22 102.717C130.82 103.619 129.434 108.937 129.399 111.703C129.396 111.866 129.534 113.639 129.635 114.757C129.495 114.111 129.364 113.482 129.213 112.82C128.921 111.508 128.599 110.209 128.256 108.81C128.071 108.142 127.885 107.467 127.696 106.785C127.521 106.104 127.266 105.413 127.051 104.718C126.526 103.121 125.931 101.535 125.303 99.9526C126.232 99.6343 129.52 98.4448 130.815 97.1244C132.105 95.8098 133.453 93.6918 133.378 91.5073C133.305 89.3678 131.856 87.5769 130.068 87.8961C127.586 88.3391 125.564 93.3362 125.189 96.0634C125.166 96.2337 125.075 98.2276 125.042 99.3243C124.658 98.3768 124.279 97.4287 123.866 96.4862C122.673 93.7646 121.397 91.0556 120.135 88.3458C119.747 87.5159 119.37 86.6837 118.988 85.8521C119.32 85.7432 123.253 84.4339 124.704 82.9547C125.994 81.6401 127.342 79.5222 127.267 77.3373C127.193 75.1981 125.745 73.4072 123.957 73.7262C121.475 74.1691 119.453 79.1666 119.078 81.8935C119.05 82.099 118.922 84.9687 118.919 85.7001C118.081 83.8683 117.259 82.0335 116.509 80.1838C115.471 77.6333 114.567 75.0601 113.84 72.4869C113.995 72.4368 118.104 71.0933 119.591 69.578C120.881 68.2634 122.228 66.1457 122.153 63.9606C122.08 61.8214 120.631 60.0302 118.843 60.3494C116.361 60.7924 114.339 65.7898 113.964 68.5165C113.939 68.6957 113.841 70.8833 113.814 71.9241C113.736 71.9381 113.75 71.9353 113.672 71.949C112.92 69.1806 112.474 66.3823 112.161 63.7369C111.977 62.2056 111.871 60.7291 111.794 59.2896C112.58 59.1365 116.166 58.3869 117.626 57.2059C119.025 56.0738 120.553 54.1522 120.673 51.9704C120.79 49.8338 119.509 47.857 117.704 47.9317C115.197 48.0353 112.744 52.7281 112.128 55.3876C112.095 55.532 111.887 57.0491 111.747 58.1562C111.721 57.5063 111.683 56.8357 111.668 56.2119C111.604 53.8708 111.663 51.7224 111.727 49.8198C111.771 48.7381 111.828 47.7615 111.889 46.8481C112.596 46.2005 115.423 43.5466 116.263 41.7014C117.082 39.9005 117.721 37.3248 117.014 35.3208C116.321 33.3583 114.446 32.3329 112.872 33.4269C110.686 34.9456 110.259 40.507 110.705 43.2179C110.744 43.4523 111.688 47.0301 111.725 46.9965C111.725 46.9965 111.76 46.9652 111.768 46.9576C111.695 47.8348 111.625 48.777 111.565 49.8074C111.467 51.7117 111.37 53.8652 111.393 56.2172C111.41 58.5675 111.483 61.1211 111.756 63.8013C112.027 66.4887 112.423 69.2988 113.134 72.1288C113.142 72.1607 113.154 72.1926 113.162 72.2245C112.746 71.4769 111.525 69.4335 111.417 69.2896C109.893 67.2629 105.984 64.4534 103.712 65.7638C102.075 66.7082 101.658 69.1871 102.547 71.0261C103.453 72.9063 105.52 73.7645 107.183 73.9899Z" fill="black"/>
</g>
<path opacity="0.64" d="M130.899 124.954L120.52 75.1574V61.5449H105.827V75.1574L95.4478 124.954C94.7512 128.296 96.7942 131.552 99.5881 131.552H126.758C129.552 131.552 131.595 128.296 130.899 124.954Z" fill="white"/>
<path d="M130.899 124.954L120.52 75.1574V61.5449H105.827V75.1574L95.4478 124.954C94.7512 128.296 96.7942 131.552 99.5881 131.552H126.758C129.552 131.552 131.595 128.296 130.899 124.954Z" stroke="#263238" stroke-miterlimit="10"/>
<path d="M122.402 99.79H103.944L98.4966 125.924C98.3767 126.498 98.5709 126.923 98.6974 127.124C98.8239 127.325 99.1074 127.663 99.5875 127.663H126.758C127.238 127.663 127.522 127.325 127.648 127.124C127.775 126.923 127.969 126.498 127.849 125.924L122.402 99.79Z" fill="#654B3C"/>
<path opacity="0.64" d="M136.177 84.4675V55.7109H122.534V84.4672C115.034 87.8972 109.678 96.7861 109.678 107.244C109.678 120.668 118.488 131.551 129.356 131.551C140.223 131.551 149.033 120.668 149.033 107.244C149.033 96.7861 143.677 87.8975 136.177 84.4675Z" fill="white"/>
<path d="M136.177 84.4675V55.7109H122.534V84.4672C115.034 87.8972 109.678 96.7861 109.678 107.244C109.678 120.668 118.488 131.551 129.356 131.551C140.223 131.551 149.033 120.668 149.033 107.244C149.033 96.7861 143.677 87.8975 136.177 84.4675Z" stroke="#263238" stroke-miterlimit="10"/>
<path d="M112.505 101.086C112.038 103.039 111.777 105.103 111.777 107.244C111.777 119.237 119.648 128.959 129.356 128.959C139.065 128.959 146.935 119.237 146.935 107.244C146.935 105.103 146.674 103.04 146.207 101.086H112.505Z" fill="#906F59"/>
<path opacity="0.64" d="M151.607 100.476V47.79H142.602V100.476C137.652 102.74 134.117 108.607 134.117 115.509C134.117 124.369 139.932 131.552 147.105 131.552C154.277 131.552 160.092 124.369 160.092 115.509C160.092 108.607 156.557 102.74 151.607 100.476Z" fill="white"/>
<path d="M151.607 100.476V47.79H142.602V100.476C137.652 102.74 134.117 108.607 134.117 115.509C134.117 124.369 139.932 131.552 147.105 131.552C154.277 131.552 160.092 124.369 160.092 115.509C160.092 108.607 156.557 102.74 151.607 100.476Z" stroke="#263238" stroke-miterlimit="10"/>
<path d="M135.982 111.444C135.674 112.734 135.502 114.096 135.502 115.509C135.502 123.424 140.696 129.84 147.104 129.84C153.512 129.84 158.706 123.424 158.706 115.509C158.706 114.096 158.534 112.734 158.225 111.444H135.982Z" fill="#452F23"/>
<path d="M66.1346 62.4071C66.1346 62.4071 65.0033 61.1653 63.4139 70.7852C61.8245 80.4049 62.6192 95.3255 65.9567 101.804C69.2941 108.283 76.4459 112.995 76.4459 112.995L81.3727 105.142C81.3727 105.142 71.6782 101.215 69.2941 89.6323C66.9102 78.0493 68.3405 70.7852 70.0888 70.3927C71.8371 70.0001 74.3957 75.4629 74.3957 75.4629L67.1539 58.2373L66.1346 62.4071Z" fill="#263238" stroke="#263238" stroke-miterlimit="10"/>
<path d="M64.4177 62.4071C64.4177 62.4071 63.2864 61.1653 61.697 70.7852C60.1078 80.4049 60.9023 95.3255 64.24 101.804C67.5774 108.283 74.7292 112.995 74.7292 112.995L79.656 105.142C79.656 105.142 69.9615 101.215 67.5774 89.6323C65.1933 78.0493 66.6238 70.7852 68.3721 70.3927C70.1204 70.0001 72.679 75.4629 72.679 75.4629L65.4372 58.2373L64.4177 62.4071Z" fill="white" stroke="#263238" stroke-miterlimit="10"/>
<path d="M64.399 72.3549C65.1889 72.3549 65.8293 71.5639 65.8293 70.5881C65.8293 69.6123 65.1889 68.8213 64.399 68.8213C63.6091 68.8213 62.9688 69.6123 62.9688 70.5881C62.9688 71.5639 63.6091 72.3549 64.399 72.3549Z" fill="#263238" stroke="#263238" stroke-miterlimit="10"/>
<path d="M64.3981 71.6972C64.894 71.6972 65.2961 71.2006 65.2961 70.5879C65.2961 69.9752 64.894 69.4785 64.3981 69.4785C63.9021 69.4785 63.5 69.9752 63.5 70.5879C63.5 71.2006 63.9021 71.6972 64.3981 71.6972Z" fill="white" stroke="#263238" stroke-miterlimit="10"/>
<path d="M69.1519 47.6865L63.1289 51.6754L63.7346 54.8573L70.962 50.0704L69.1519 47.6865Z" fill="white" stroke="#263238" stroke-miterlimit="10"/>
<path d="M59.6888 25.8862L53.666 29.875L63.1278 51.6754L69.1506 47.6865L59.6888 25.8862Z" fill="#263238" stroke="#263238" stroke-miterlimit="10"/>
<path d="M59.6888 25.8862L53.666 29.875L54.2622 31.2487L60.285 27.2599L59.6888 25.8862Z" fill="white" stroke="#263238" stroke-miterlimit="10"/>
<path d="M70.9176 50.0987L63.7324 54.8574L74.5397 79.7579L81.7249 74.9992L70.9176 50.0987Z" fill="white" stroke="#263238" stroke-miterlimit="10"/>
<path d="M79.861 70.7032L72.6758 75.4619L74.5403 79.7578L81.7255 74.9991L79.861 70.7032Z" fill="#263238" stroke="#263238" stroke-miterlimit="10"/>
<path d="M84.7175 75.2453L82.4766 76.7295L85.7807 84.3424L88.0216 82.8583L84.7175 75.2453Z" fill="white" stroke="#263238" stroke-miterlimit="10"/>
<path d="M81.4326 76.8763L79.002 77.7988L81.0558 86.0562L83.4864 85.1336L81.4326 76.8763Z" fill="white" stroke="#263238" stroke-miterlimit="10"/>
<path d="M90.3432 80.5898L92.3105 78.5996L87.8799 71.9162L85.9125 73.9063L90.3432 80.5898Z" fill="white" stroke="#263238" stroke-miterlimit="10"/>
<path d="M88.5878 70.454L77.3828 77.875L78.4341 80.2972L89.6391 72.8763L88.5878 70.454Z" fill="white" stroke="#263238" stroke-miterlimit="10"/>
<path d="M95.5516 86.8566L77.6953 98.6826L78.4517 100.425L96.3079 88.5992L95.5516 86.8566Z" fill="#263238" stroke="#263238" stroke-miterlimit="10"/>
<path d="M100.587 104.126L87.7192 111.025L86.3945 106.723L99.2626 99.8242L100.587 104.126Z" fill="#263238" stroke="#263238" stroke-miterlimit="10"/>
<path d="M83.3787 97.5062L79.457 100.104L80.6585 102.872L84.5802 100.274L83.3787 97.5062Z" fill="white" stroke="#263238" stroke-miterlimit="10"/>
<path d="M69.8861 64.3785C71.4196 62.1466 71.1981 58.8015 69.3913 56.9072C67.5845 55.0128 64.8767 55.2864 63.3431 57.5183C61.8096 59.7502 62.0311 63.0953 63.8379 64.9896C65.6447 66.884 68.3525 66.6104 69.8861 64.3785Z" fill="#263238" stroke="#263238" stroke-miterlimit="10"/>
<path d="M68.8124 59.4964C68.1616 57.9973 66.6504 57.4334 65.4368 58.2373C64.2233 59.0411 63.7668 60.9079 64.4175 62.407C65.0683 63.9061 66.5795 64.4701 67.7933 63.6662C69.0068 62.8626 69.4631 60.9955 68.8124 59.4964Z" fill="white" stroke="#263238" stroke-miterlimit="10"/>
<path d="M80.4289 102.051L69.1387 122.614H91.3887L85.6672 114.565L82.1883 102.333C81.9179 101.383 80.8868 101.218 80.4289 102.051Z" fill="#263238" stroke="#263238" stroke-miterlimit="10"/>
<path d="M83.3652 108.93L90.2552 105.236C90.9114 104.885 91.673 105.272 91.9387 106.092C92.1826 106.845 91.9212 107.704 91.3362 108.072L83.9756 112.7L83.3652 108.93Z" fill="white" stroke="#263238" stroke-miterlimit="10"/>
<path d="M80.7676 103.964H81.0981C82.2534 103.964 83.304 104.792 83.7904 106.087L86.1885 112.467C86.6008 113.564 85.8873 114.797 84.9138 114.671L84.1052 114.566L80.7676 103.964Z" fill="white" stroke="#263238" stroke-miterlimit="10"/>
<path d="M78.8667 102.051L67.5762 122.614H89.8262L84.1049 114.565L80.6258 102.333C80.3556 101.383 79.3245 101.218 78.8667 102.051Z" fill="white" stroke="#263238" stroke-miterlimit="10"/>
<path d="M80.6086 106.712C80.6086 105.736 79.9682 104.945 79.1783 104.945C78.3884 104.945 77.748 105.736 77.748 106.712C77.748 107.688 78.3884 108.479 79.1783 108.479C79.9682 108.479 80.6086 107.688 80.6086 106.712Z" fill="white" stroke="#263238" stroke-miterlimit="10"/>
<path d="M110.071 131.552H64.4414V123.122C64.4414 122.468 64.8707 121.938 65.4002 121.938H109.112C109.642 121.938 110.071 122.468 110.071 123.122V131.552H110.071Z" fill="white" stroke="#263238" stroke-miterlimit="10"/>
<path d="M109.147 121.938H94.3216C93.4353 121.938 92.7168 122.825 92.7168 123.92V131.552H110.071V123.079C110.071 122.448 109.658 121.938 109.147 121.938Z" fill="#263238" stroke="#263238" stroke-miterlimit="10"/>
<path d="M41.082 57.2627C41.082 57.2627 41.1167 65.9645 41.1908 67.2789C41.265 68.5929 41.4984 74.4536 41.4984 74.4536C41.4984 74.4536 41.2366 74.7733 41.3203 75.0573C41.4039 75.3415 41.6253 76.2649 41.6253 76.2649H44.1844C44.1844 76.2649 44.3376 75.2348 44.3694 74.9153C44.4011 74.5955 44.3213 73.8852 44.3229 73.7077C44.3245 73.5301 44.8771 57.2627 44.8771 57.2627H41.082Z" fill="#263238" stroke="#263238" stroke-miterlimit="10" stroke-linecap="round" stroke-linejoin="round"/>
<path d="M49.0434 76.2648C49.0434 76.2648 49.2943 77.1171 49.5792 77.4013C49.8642 77.6855 51.5243 78.5023 51.6369 78.7509C51.7496 78.9996 51.5177 79.2127 51.3719 79.4257C51.2262 79.6388 48.926 79.6388 48.4659 79.6388C48.0057 79.6388 46.5127 79.4257 46.1389 79.4257C45.7651 79.4257 45.48 79.1771 45.6001 78.6087C45.7205 78.0403 45.8243 76.1223 45.8243 76.1223C45.8243 76.1223 46.551 75.27 47.585 75.3764C48.6193 75.4833 49.0434 76.2648 49.0434 76.2648Z" fill="white" stroke="#263238" stroke-miterlimit="10" stroke-linecap="round" stroke-linejoin="round"/>
<path d="M51.6628 78.9128C51.4121 78.9901 50.9409 79.1276 50.597 79.1774C50.1076 79.2485 47.3779 79.0354 46.804 78.9288C46.4125 78.8562 45.8887 78.7176 45.5945 78.6367C45.4895 79.185 45.7706 79.426 46.138 79.426C46.5118 79.426 48.0051 79.6391 48.465 79.6391C48.9251 79.6391 51.2253 79.6391 51.3711 79.426C51.4844 79.2603 51.6474 79.0948 51.6628 78.9128Z" fill="white" stroke="#263238" stroke-miterlimit="10" stroke-linecap="round" stroke-linejoin="round"/>
<path d="M45.564 57.5115C45.564 57.5115 45.8238 66.7462 45.8911 68.8062C45.9584 70.8661 45.8083 74.6666 45.8083 74.6666C45.8083 74.6666 45.4606 74.9508 45.4878 75.1283C45.515 75.3058 45.6762 76.5135 45.6762 76.5135C45.6762 76.5135 46.5067 76.8688 47.0532 76.8688C47.5995 76.8688 47.8923 76.3004 48.1235 76.1584C48.3549 76.0165 49.0427 76.2651 49.0427 76.2651C49.0427 76.2651 49.1927 75.5903 49.1385 75.235C49.0844 74.8797 48.7113 74.8088 48.6557 74.5957C48.6002 74.3827 49.5903 57.4404 49.5903 57.4404L45.564 57.5115Z" fill="#263238" stroke="#263238" stroke-miterlimit="10" stroke-linecap="round" stroke-linejoin="round"/>
<path d="M41.7813 31.2833L40.0813 32.4248L40.1802 46.702L39.6289 59.8833L40.5195 60.37L41.1113 58.3352L41.2346 60.5027C41.2346 60.5027 43.8424 61.1663 46.2054 61.2105C48.5684 61.2548 50.5141 59.9278 50.5141 59.9278L50.5706 46.0387L52.2801 39.2711C52.2801 39.2711 50.5896 32.3266 50.2702 32.0169C49.9509 31.7072 47.0658 30.0264 47.0658 30.0264H43.9147L41.7813 31.2833Z" fill="white" stroke="#263238" stroke-miterlimit="10" stroke-linecap="round" stroke-linejoin="round"/>
<path d="M50.8296 40.2605L50.1484 34.7988" stroke="#263238" stroke-miterlimit="10" stroke-linecap="round" stroke-linejoin="round"/>
<path d="M46.6283 59.3633L46.6172 60.5754" stroke="#263238" stroke-miterlimit="10" stroke-linecap="round" stroke-linejoin="round"/>
<path d="M46.768 44.3438L46.6367 58.5731" stroke="#263238" stroke-miterlimit="10" stroke-linecap="round" stroke-linejoin="round"/>
<path d="M44.7949 49.5533C44.9341 49.5404 45.0776 49.5259 45.2256 49.5088" stroke="#263238" stroke-miterlimit="10" stroke-linecap="round" stroke-linejoin="round"/>
<path d="M41.6855 49.5088C41.6855 49.5088 42.5714 49.6978 44.2437 49.5956" stroke="#263238" stroke-miterlimit="10" stroke-linecap="round" stroke-linejoin="round"/>
<path d="M49.6562 49.1792C49.884 49.147 50.1452 49.1008 50.4364 49.0342" stroke="#263238" stroke-miterlimit="10" stroke-linecap="round" stroke-linejoin="round"/>
<path d="M48.5996 49.245C48.5996 49.245 48.7701 49.2582 49.0849 49.2383" stroke="#263238" stroke-miterlimit="10" stroke-linecap="round" stroke-linejoin="round"/>
<path d="M42.3164 50.4043C42.3164 50.4043 43.2104 50.6151 44.1504 50.4569" stroke="#263238" stroke-miterlimit="10" stroke-linecap="round" stroke-linejoin="round"/>
<path d="M43.9308 30.3143L43.4512 33.8168L44.3322 34.3676L43.497 35.2714L46.7394 41.2878L49.2679 34.7926L48.4356 34.0302L49.1353 33.1154L48.1652 30.6839L47.149 30.0371L43.9308 30.3143Z" fill="white" stroke="#263238" stroke-miterlimit="10" stroke-linecap="round" stroke-linejoin="round"/>
<path d="M43.4941 30.3489L46.7522 40.1741C46.7522 40.1741 47.8337 34.2269 47.9178 32.7838C48.0019 31.3406 47.4141 29.8102 47.2385 29.6791C46.8465 29.3865 44.1222 27.9538 43.4941 30.3489Z" fill="white" stroke="#263238" stroke-miterlimit="10" stroke-linecap="round" stroke-linejoin="round"/>
<path d="M45.0918 34.4773L46.3054 32.5059L47.6196 34.3578" stroke="#263238" stroke-miterlimit="10" stroke-linecap="round" stroke-linejoin="round"/>
<path d="M45.6055 33.6457L46.2136 34.6392L45.8723 37.1572L46.7529 40.1737L47.2388 37.0186L46.6631 34.5697L47.0085 33.5995L46.3065 32.5059L45.6055 33.6457Z" fill="#263238" stroke="#263238" stroke-miterlimit="10" stroke-linecap="round" stroke-linejoin="round"/>
<path d="M49.6733 39.8262L49.4804 40.0166L48.0869 37.8505C48.0449 37.7852 48.054 37.6898 48.1075 37.6371C48.1608 37.5845 48.2381 37.5948 48.28 37.6601L49.6733 39.8262Z" stroke="#263238" stroke-miterlimit="10" stroke-linecap="round" stroke-linejoin="round"/>
<path d="M48.4191 37.8765L48.2799 37.6601C48.238 37.5948 48.1607 37.5845 48.1074 37.6371C48.0542 37.6898 48.0449 37.7852 48.0868 37.8505L48.226 38.0669L48.4191 37.8765Z" stroke="#263238" stroke-miterlimit="10" stroke-linecap="round" stroke-linejoin="round"/>
<path d="M45.7598 42.066L47.3847 41.0533C47.3847 41.0533 48.2939 39.2064 48.3907 39.1764C48.4875 39.1467 49.5691 39.534 49.5691 39.534L50.4055 40.3681L49.835 42.096C49.835 42.096 48.7717 42.3343 48.6747 42.3939C48.5777 42.4536 48.0666 42.9598 47.7275 43.1387C47.3881 43.3173 46.8818 43.3173 46.8818 43.3173L45.8876 43.9132L45.7598 42.066Z" fill="white" stroke="#263238" stroke-miterlimit="10" stroke-linecap="round" stroke-linejoin="round"/>
<path d="M48.7246 39.8125L49.5497 40.1888L50.2011 40.8961" stroke="#263238" stroke-miterlimit="10" stroke-linecap="round" stroke-linejoin="round"/>
<path d="M48.668 40.5947L49.3958 40.9559L50.0243 41.4977" stroke="#263238" stroke-miterlimit="10" stroke-linecap="round" stroke-linejoin="round"/>
<path d="M48.3926 41.5132L48.7827 41.498L49.496 42.1" stroke="#263238" stroke-miterlimit="10" stroke-linecap="round" stroke-linejoin="round"/>
<path d="M50.8366 36.9756L48.0176 45.0281L53.2531 45.6875L55.8584 38.0821L50.8366 36.9756Z" fill="#263238" stroke="#263238" stroke-miterlimit="10" stroke-linecap="round" stroke-linejoin="round"/>
<path d="M52.3633 37.604L52.5553 36.9746L53.8591 37.0138L54.7873 37.4584L54.5735 38.0828L52.3633 37.604Z" fill="white" stroke="#263238" stroke-miterlimit="10" stroke-linecap="round" stroke-linejoin="round"/>
<path d="M55.0719 41.7448C55.0719 41.7448 53.7828 41.4749 53.7015 41.6711C53.6201 41.8674 53.6981 42.0393 53.8171 42.064C53.9361 42.0886 54.6884 42.3832 54.8876 42.3339C55.0868 42.2849 55.209 41.9411 55.0719 41.7448Z" fill="white" stroke="#263238" stroke-miterlimit="10" stroke-linecap="round" stroke-linejoin="round"/>
<path d="M54.1323 42.2069C54.1323 42.2069 53.4761 42.173 53.4335 42.3421C53.3909 42.511 53.4715 42.663 53.5806 42.7137C53.6896 42.7644 54.3583 42.8996 54.5224 42.8996C54.6865 42.8996 54.798 42.6801 54.7581 42.5616C54.7182 42.4435 54.6912 42.3928 54.6504 42.3757C54.6096 42.3589 54.1323 42.2069 54.1323 42.2069Z" fill="white" stroke="#263238" stroke-miterlimit="10" stroke-linecap="round" stroke-linejoin="round"/>
<path d="M54.5217 42.8994C54.5217 42.8994 54.4908 43.2881 54.3673 43.3387C54.2438 43.3894 53.7109 43.3387 53.5613 43.2542C53.4117 43.1696 53.3577 43.0853 53.4953 43.0008C53.6329 42.9162 54.016 42.8994 54.016 42.8994H54.5217Z" fill="white" stroke="#263238" stroke-miterlimit="10" stroke-linecap="round" stroke-linejoin="round"/>
<path d="M54.2023 43.3555C54.2023 43.3555 54.2678 43.6763 54.117 43.7102C53.9663 43.7441 53.501 43.7777 53.4885 43.6595C53.476 43.5414 53.9971 43.3723 53.9971 43.3723L54.2023 43.3555Z" fill="white" stroke="#263238" stroke-miterlimit="10" stroke-linecap="round" stroke-linejoin="round"/>
<path d="M41.7819 31.2832C41.7819 31.2832 38.5061 32.8809 38.5512 33.2088C38.5963 33.5364 39.0145 45.7724 39.1342 45.8617C39.2539 45.951 46.1919 44.8064 46.1919 44.8064L46.0274 41.7381L42.0936 42.0657L41.7466 35.2441" fill="white"/>
<path d="M41.7819 31.2832C41.7819 31.2832 38.5061 32.8809 38.5512 33.2088C38.5963 33.5364 39.0145 45.7724 39.1342 45.8617C39.2539 45.951 46.1919 44.8064 46.1919 44.8064L46.0274 41.7381L42.0936 42.0657L41.7466 35.2441" stroke="#263238" stroke-miterlimit="10" stroke-linecap="round" stroke-linejoin="round"/>
<path d="M42.094 42.0654L40.6211 42.2443" stroke="#263238" stroke-miterlimit="10" stroke-linecap="round" stroke-linejoin="round"/>
<path d="M44.1832 76.265C44.1832 76.265 43.3291 75.3416 42.9256 75.448C42.5222 75.5544 41.6278 75.8741 41.6241 76.265C41.6205 76.6556 41.4915 77.245 41.4902 77.3873C41.4888 77.5292 41.1966 78.9645 41.3369 79.3195C41.4775 79.6749 42.5383 79.9943 42.8844 79.8879C43.2305 79.7813 43.9509 79.6037 44.0996 79.0709C44.2482 78.5381 44.197 77.8633 44.1705 77.6146C44.1442 77.366 44.1832 76.265 44.1832 76.265Z" fill="white" stroke="#263238" stroke-miterlimit="10" stroke-linecap="round" stroke-linejoin="round"/>
<path d="M44.0989 79.0708C44.1313 78.9543 44.1529 78.8311 44.1687 78.707C43.8498 79.0932 43.2525 79.5594 42.6741 79.5185C42.2015 79.4852 41.5795 79.1128 41.3 78.9302C41.2953 79.0974 41.3041 79.2376 41.3363 79.3194C41.4768 79.6747 42.5376 79.9942 42.8837 79.8878C43.2296 79.7811 43.9502 79.6036 44.0989 79.0708Z" fill="white" stroke="#263238" stroke-miterlimit="10" stroke-linecap="round" stroke-linejoin="round"/>
<path d="M47.9123 21.5932C47.9123 21.5932 48.4336 21.8298 48.4715 21.988C48.5093 22.1462 48.9572 24.8384 48.9572 24.8384C48.9572 24.8384 49.5543 22.7731 49.4051 21.7038C49.2557 20.6344 48.1811 20.3024 47.9125 20.376C47.6437 20.4499 47.9123 21.5932 47.9123 21.5932Z" fill="#263238" stroke="#263238" stroke-miterlimit="10" stroke-linecap="round" stroke-linejoin="round"/>
<path d="M45.5486 20.2432L48.4717 21.9876C48.4717 21.9876 48.7598 23.3456 48.9574 24.838C49.1551 26.3304 48.3903 28.5628 48.1514 28.784C47.6296 29.2673 47.2259 29.1158 47.2259 29.1158L47.4319 30.2434C47.4319 30.2434 46.4092 32.2311 46.3079 32.5055C46.2066 32.7799 44.1242 29.9432 44.1242 29.9432L44.1074 20.8468L45.5486 20.2432Z" fill="white" stroke="#263238" stroke-miterlimit="10" stroke-linecap="round" stroke-linejoin="round"/>
<path d="M47.226 29.1162C47.226 29.1162 46.0879 28.6494 45.924 28.6158C45.7601 28.5822 47.347 29.9439 47.347 29.9439L47.226 29.1162Z" fill="#263238" stroke="#263238" stroke-miterlimit="10" stroke-linecap="round" stroke-linejoin="round"/>
<path d="M42.747 23.6578C42.747 23.6578 42.3887 22.8463 41.8215 23.2154C41.2544 23.5841 40.8661 24.7643 41.1946 25.5755C41.523 26.3866 42.0305 26.5712 42.0305 26.5712C42.0305 26.5712 41.4634 26.7187 41.8215 27.3823C42.1797 28.0462 43.1351 27.825 43.2246 27.4929C43.3141 27.1611 43.0156 26.829 43.0156 26.829C43.0156 26.829 43.5531 26.4972 43.6725 26.3127C43.792 26.1285 42.747 23.6578 42.747 23.6578Z" fill="#263238" stroke="#263238" stroke-miterlimit="10" stroke-linecap="round" stroke-linejoin="round"/>
<path d="M42.747 23.6578C42.747 23.6578 42.3887 22.8463 41.8215 23.2154C41.2544 23.5841 40.8661 24.7643 41.1946 25.5755C41.523 26.3866 42.0305 26.5712 42.0305 26.5712C42.0305 26.5712 41.4634 26.7187 41.8215 27.3823C42.1797 28.0462 43.1351 27.825 43.2246 27.4929C43.3141 27.1611 43.0156 26.829 43.0156 26.829C43.0156 26.829 43.5531 26.4972 43.6725 26.3127C43.792 26.1285 42.747 23.6578 42.747 23.6578Z" fill="#263238" stroke="#263238" stroke-miterlimit="10" stroke-linecap="round" stroke-linejoin="round"/>
<path d="M46.1809 19.2698C45.0165 19.1222 43.8523 19.5649 43.1655 20.6342C42.4789 21.7035 42.5386 23.437 42.7176 24.1745C42.8665 24.7875 43.0572 25.9075 43.4597 26.5235C43.5436 26.7718 43.7419 27.1736 44.1803 27.3461C44.8372 27.6043 44.8372 27.3831 44.9267 27.0879C44.9866 26.8911 44.8204 25.5622 44.6944 24.6441C44.902 24.2199 45.2978 23.5151 45.7627 23.2155C46.4492 22.7731 47.0762 22.6992 47.4046 22.4041C47.7331 22.109 48.2406 21.7035 48.2705 20.8921C48.3004 20.0809 47.3452 19.4171 46.1809 19.2698Z" fill="#263238" stroke="#263238" stroke-miterlimit="10" stroke-linecap="round" stroke-linejoin="round"/>
<path d="M45.0451 25.4652C45.0451 25.4652 44.5972 24.1744 44.06 24.3956C43.5226 24.6168 43.9705 25.7601 44.1198 26.1288C44.269 26.4976 44.8064 26.6821 44.9857 26.4606" fill="white"/>
<path d="M45.0451 25.4652C45.0451 25.4652 44.5972 24.1744 44.06 24.3956C43.5226 24.6168 43.9705 25.7601 44.1198 26.1288C44.269 26.4976 44.8064 26.6821 44.9857 26.4606" stroke="#263238" stroke-miterlimit="10" stroke-linecap="round" stroke-linejoin="round"/>
<path d="M48.0194 24.168C48.0194 24.168 48.5376 25.6332 48.4016 25.8586C48.2656 26.0837 47.7676 26.2106 47.7676 26.2106" stroke="#263238" stroke-miterlimit="10" stroke-linecap="round" stroke-linejoin="round"/>
<path d="M46.7188 26.707C46.7188 26.707 46.9853 27.3883 47.8945 27.0842" stroke="#263238" stroke-miterlimit="10" stroke-linecap="round" stroke-linejoin="round"/>
<path d="M46.9801 24.513C47.0037 24.7196 46.9579 24.8997 46.8777 24.9148C46.7975 24.9299 46.7134 24.7745 46.6898 24.5679C46.6662 24.3612 46.712 24.1812 46.7922 24.1661C46.8725 24.1509 46.9566 24.3063 46.9801 24.513Z" fill="#263238"/>
<path d="M48.6305 24.2024C48.6541 24.4091 48.6083 24.5891 48.5281 24.6042C48.4478 24.6193 48.3637 24.4639 48.3402 24.2573C48.3166 24.0507 48.3624 23.8706 48.4426 23.8555C48.5226 23.8404 48.607 23.9958 48.6305 24.2024Z" fill="#263238"/>
<path d="M47.6932 24.3787C47.6264 23.7943 47.1882 23.3931 46.7142 23.4821C46.2405 23.5714 45.9105 24.1171 45.9774 24.7015C46.0442 25.2859 46.4824 25.6871 46.9563 25.5981C47.4301 25.509 47.7599 24.963 47.6932 24.3787Z" stroke="#263238" stroke-miterlimit="10" stroke-linecap="round" stroke-linejoin="round"/>
<path d="M49.4264 24.053C49.3596 23.4686 49.0062 23.0514 48.6367 23.1208C48.2675 23.1903 48.0222 23.7203 48.0891 24.3047C48.156 24.889 48.5094 25.3062 48.8788 25.2368C49.2481 25.1671 49.4933 24.6373 49.4264 24.053Z" stroke="#263238" stroke-miterlimit="10" stroke-linecap="round" stroke-linejoin="round"/>
<path d="M45.9767 24.7021L45.1582 24.8564" stroke="#263238" stroke-miterlimit="10" stroke-linecap="round" stroke-linejoin="round"/>
<path d="M47.6934 24.3785C47.6934 24.3785 47.7824 23.9792 48.0893 24.304" stroke="#263238" stroke-miterlimit="10" stroke-linecap="round" stroke-linejoin="round"/>
<path d="M48.875 24.1563L49.426 24.0527" stroke="#263238" stroke-miterlimit="10" stroke-linecap="round" stroke-linejoin="round"/>
<path d="M46.125 23.5961C46.125 23.5961 46.5849 22.9922 47.1887 23.3284" stroke="#263238" stroke-miterlimit="10" stroke-linecap="round" stroke-linejoin="round"/>
<path d="M48.1172 23.1538C48.1172 23.1538 48.3828 22.7666 48.6249 22.9685" stroke="#263238" stroke-miterlimit="10" stroke-linecap="round" stroke-linejoin="round"/>
<path d="M37.385 79.4375V90.243H28.7254V103.924H20.0658V117.999H11.4062V131.551H20.0658H28.7254H31.4515H37.385H40.1111H48.7707H57.43V79.4375H37.385Z" fill="#0E5666" stroke="#263238" stroke-miterlimit="10"/>
<path d="M57.4295 79.4375H49.8926V131.551H57.4295V79.4375Z" fill="#263238" stroke="#263238" stroke-miterlimit="10"/>
<path d="M2.99609 131.551H167.404" stroke="#263238" stroke-miterlimit="10" stroke-linecap="round" stroke-linejoin="round"/>
</svg>
