<svg width="176" height="141" viewBox="0 0 176 141" fill="none" xmlns="http://www.w3.org/2000/svg">
<path opacity="0.8" d="M176 98.178L156.716 109.309L151.618 106.384L146.1 109.589L145.809 109.75L145.552 109.911L135.463 115.762L135.141 115.945L134.883 116.095L124.742 121.978L124.473 122.139L124.161 122.322L117.633 126.108L119.45 127.162L119.568 127.228L119.686 127.293L122.634 128.991L103.339 140.133L100.478 138.487L100.36 138.422L100.263 138.369L93.2613 134.347L93.1537 134.271L93.0036 134.196L86.0554 130.195L85.9372 130.13L85.8283 130.066L78.7193 125.99L83.4081 123.225L83.5157 123.16L83.6339 123.095L88.1939 120.407L88.3015 120.342L88.4197 120.266L92.9797 117.588L93.0873 117.524L93.2162 117.449L94.0331 116.965L82.0626 110.082L81.7943 109.932L81.4821 109.749L76.3085 106.78L73.2428 108.555L73.0276 108.673L72.8337 108.791L65.1549 113.243L64.9184 113.383L64.7139 113.501L57.0032 117.975L56.7987 118.093L56.5622 118.232L48.6789 122.803L36.719 115.93L36.5145 115.812L36.3537 115.715L24.544 108.929L24.3394 108.811L24.103 108.671L12.3796 101.938L12.175 101.82L11.9917 101.713L0 94.8188L7.9046 90.1618L8.08791 90.0542L8.28184 89.936L15.9938 85.3973L16.1665 85.2897L16.3711 85.1821L24.0725 80.6433L24.2558 80.5357L24.4497 80.4175L32.333 75.7712L44.3354 82.6982L44.5399 82.8164L44.7126 82.924L54.6615 88.6675L60.1791 85.4198L60.4262 85.2697L60.6839 85.1196L70.816 79.1504L71.0525 79.0109L71.3101 78.8608L81.4423 72.8915L81.6787 72.752L81.947 72.6019L92.3036 66.4932L108.081 75.6025L108.349 75.7526L108.586 75.8921L124.127 84.8726L124.665 85.1847L134.71 90.9813C134.732 90.9601 139.304 88.2717 139.304 88.2717L139.411 88.2185L139.529 88.1428L144.089 85.4544L144.197 85.4012L144.315 85.3255L148.983 82.572L156.092 86.6804L156.221 86.7454L156.318 86.8106L163.33 90.8538L163.566 90.9933L170.557 95.026L170.675 95.1017L170.793 95.1668L176 98.178Z" fill="#906F59"/>
<path d="M83.2235 100.222L129.929 109.173L127.192 94.818L98.2304 82.6377L82.125 88.9988L83.2235 100.222Z" fill="#0E5666"/>
<path d="M82.668 102.9L101.904 131.918L104.23 135.428L113.374 130.045C116.042 128.919 117.693 126.184 117.693 122.115C117.693 118.037 116.042 113.402 113.374 109.191C110.705 104.988 107.021 101.203 102.951 98.8516C98.873 96.5005 95.1884 96.025 92.5198 97.15C92.0616 97.3506 91.6445 97.6083 91.2433 97.9005L82.668 102.9Z" fill="#221D38"/>
<path d="M135.445 71.8523L154.681 100.87L157.007 104.381L166.151 98.9971C168.82 97.8707 170.471 95.1371 170.471 91.0673C170.471 86.9894 168.82 82.3537 166.151 78.1431C163.483 73.9404 159.797 70.1548 155.728 67.8037C151.65 65.4527 147.966 64.9771 145.297 66.1022C144.839 66.3028 144.422 66.5604 144.022 66.8527L135.445 71.8523Z" fill="#221D38"/>
<path d="M131.125 79.88C131.125 83.9512 132.776 88.5909 135.443 92.8002C138.112 97.0095 141.798 100.788 145.87 103.14C149.943 105.491 153.629 105.969 156.297 104.841C158.966 103.713 160.616 100.98 160.616 96.9072C160.616 92.8347 158.966 88.1963 156.297 83.987C153.629 79.7777 149.943 75.9987 145.87 73.6477C141.799 71.2966 138.112 70.8184 135.443 71.9461C132.775 73.0738 131.125 75.8075 131.125 79.88Z" fill="#BDFFFF"/>
<path d="M131.125 79.88C131.125 83.9512 132.776 88.5909 135.443 92.8002C138.112 97.0095 141.798 100.788 145.87 103.14C149.943 105.491 153.629 105.969 156.297 104.841C158.966 103.713 160.616 100.98 160.616 96.9072C160.616 92.8347 158.966 88.1963 156.297 83.987C153.629 79.7777 149.943 75.9987 145.87 73.6477C141.799 71.2966 138.112 70.8184 135.443 71.9461C132.775 73.0738 131.125 75.8075 131.125 79.88Z" fill="#3B3847"/>
<path d="M153.233 100.801C151.834 100.801 150.04 100.21 148.181 99.1353C144.925 97.2545 141.705 94.044 139.347 90.3249C137.058 86.7159 135.746 82.9077 135.746 79.8779C135.746 78.7409 135.94 76.7511 137.243 76.2012C137.586 76.0565 138.012 75.9834 138.509 75.9834C139.908 75.9834 141.701 76.5745 143.56 77.6491C146.817 79.5299 150.037 82.7404 152.395 86.4595C154.683 90.0685 155.996 93.8767 155.996 96.9052C155.996 98.0422 155.802 100.032 154.499 100.583C154.155 100.728 153.73 100.801 153.233 100.801Z" fill="#221D38"/>
<path d="M71.8321 24.0097L91.1692 12.7725L87.7037 30.7999L68.3652 42.0385L71.8321 24.0097Z" fill="#5F272A"/>
<path d="M72.7512 22.557L92.0897 11.3184C91.6327 11.584 91.3047 12.0768 91.1705 12.7728L71.832 24.0114C71.9662 23.3141 72.2943 22.8213 72.7512 22.557Z" fill="#5F272A"/>
<path d="M76.043 31.4707L102.676 71.6459L105.897 76.5061L118.557 69.0531C122.251 67.495 124.537 63.7081 124.537 58.0735C124.537 52.4283 122.251 46.0087 118.557 40.1789C114.863 34.3597 109.76 29.1183 104.127 25.864C98.4816 22.6084 93.3784 21.9509 89.6844 23.509C89.0495 23.7866 88.4717 24.1439 87.9178 24.5477L76.043 31.4707Z" fill="#3B3847"/>
<path d="M70.0625 42.5828C70.0625 48.2201 72.3471 54.6436 76.0424 60.4708C79.7364 66.298 84.841 71.5301 90.4782 74.7857C96.1154 78.0413 101.22 78.7028 104.914 77.1407C108.608 75.58 110.894 71.7944 110.894 66.1572C110.894 60.5199 108.609 54.0964 104.914 48.2692C101.22 42.442 96.1154 37.2099 90.4782 33.9556C84.841 30.7 79.7364 30.0385 76.0424 31.6006C72.3471 33.16 70.0625 36.9443 70.0625 42.5828Z" fill="#BDFFFF"/>
<path d="M70.0625 42.5828C70.0625 48.2201 72.3471 54.6436 76.0424 60.4708C79.7364 66.298 84.841 71.5301 90.4782 74.7857C96.1154 78.0413 101.22 78.7028 104.914 77.1407C108.608 75.58 110.894 71.7944 110.894 66.1572C110.894 60.5199 108.609 54.0964 104.914 48.2692C101.22 42.442 96.1154 37.2099 90.4782 33.9556C84.841 30.7 79.7364 30.0385 76.0424 31.6006C72.3471 33.16 70.0625 36.9443 70.0625 42.5828Z" fill="#302D40"/>
<path d="M100.673 71.5502C98.7362 71.5502 96.2523 70.7306 93.6781 69.2443C89.1699 66.6408 84.7109 62.1951 81.446 57.0453C78.278 52.0483 76.4609 46.7764 76.4609 42.5817C76.4609 41.0076 76.7306 38.2541 78.5344 37.4903C79.0086 37.2898 79.5983 37.1875 80.2864 37.1875C82.2217 37.1875 84.7056 38.0071 87.2811 39.4934C91.7906 42.0969 96.2484 46.5426 99.5133 51.6924C102.681 56.6894 104.498 61.9613 104.498 66.1547C104.498 67.7287 104.229 70.4836 102.425 71.246C101.949 71.4479 101.36 71.5502 100.673 71.5502Z" fill="#282438"/>
<path d="M68.332 14.3434L87.6705 3.1062C88.8354 2.42877 90.4439 2.53903 92.192 3.54852L72.8535 14.7871C71.1055 13.7763 69.4956 13.666 68.332 14.3434Z" fill="#1B8F85"/>
<path d="M72.8535 14.7861L92.1907 3.54883L129.438 25.0524L110.1 36.291L72.8535 14.7861Z" fill="#6ABA7F"/>
<path d="M116.316 45.7783L135.655 34.541L139.654 60.7906L120.316 72.0291L116.316 45.7783Z" fill="#6ABA7F"/>
<path d="M110.1 36.2915C113.131 38.0409 115.741 42.0204 116.316 45.7795L120.316 72.0303L114.409 68.6192L111.056 46.6548C110.753 44.6571 109.365 42.5411 107.754 41.6113L75.1567 22.7909C73.5415 21.8584 72.1508 22.3698 71.8333 24.0089L68.3678 42.0377L62.4609 38.6267L66.6039 17.078C67.1989 13.9937 69.8156 13.0333 72.8534 14.7867L110.1 36.2915Z" fill="#881D2D"/>
<path d="M110.098 36.2913L129.436 25.0527C132.467 26.8021 135.077 30.7816 135.652 34.5407L116.314 45.7792C115.739 42.0202 113.129 38.0407 110.098 36.2913Z" fill="#6ABA7F"/>
<path d="M136.731 39.2454L93.7743 64.2078L85.697 59.5721L84.6225 58.9492L25.4688 24.9624L68.5542 0L127.588 33.9854L128.675 34.6097L136.731 39.2454Z" fill="#1B8F85"/>
<path d="M162.152 77.4082L119.191 102.373C115.144 86.7739 106.316 71.6115 94.0617 64.383C93.9634 64.3219 93.8704 64.2688 93.7734 64.213L136.73 39.252C148.991 46.329 158.077 61.6946 162.152 77.4082Z" fill="#6ABA7F"/>
<path d="M121.633 96.2543C117.311 82.9569 110.062 71.6639 101.322 64.5244L136.649 43.9971C145.543 50.0567 153.242 61.7389 157.39 75.476L121.633 96.2543Z" fill="white"/>
<path d="M153.37 73.9366L122.291 91.9932C118.179 81.0017 112.088 71.551 104.799 64.8511L135.449 47.0176C143.168 52.5007 149.636 62.4669 153.37 73.9366Z" fill="#0E5666"/>
<path d="M153.424 73.9583C152.786 72.1466 152.123 70.4025 151.393 68.709C152.131 70.4105 152.81 72.1612 153.424 73.9583Z" fill="#6B6974"/>
<path d="M154.965 74.5342L153.425 73.9577C152.788 72.146 152.125 70.4019 151.395 68.7084C151.272 68.4201 151.142 68.1319 151.013 67.8437C150.989 67.7786 150.96 67.7135 150.928 67.6524C146.97 58.8764 141.509 51.5377 135.451 47.0188L136.54 46.4092C144.271 52.146 151.04 62.4787 154.965 74.5342Z" fill="#1B8F85"/>
<path d="M119.223 102.497C119.191 102.501 119.191 105.631 119.191 105.631C119.191 105.631 108.033 99.4422 103.966 97.0899C101.069 95.4202 98.1722 94.5382 95.5873 94.5382C94.194 94.5382 92.8976 94.7866 91.7074 95.29C91.1868 95.5172 90.6714 95.8147 90.1347 96.1959L83.2277 100.222L25.4727 66.9445V24.9668L93.7729 64.2109C93.8699 64.268 93.9642 64.3211 94.0611 64.3809C106.316 71.6094 115.144 86.7717 119.183 102.359C119.199 102.42 119.215 102.461 119.223 102.497Z" fill="#0E5666"/>
<path d="M162.154 77.4082V80.6678L151.413 96.6922L140.673 102.932L129.934 109.174L119.193 105.633V102.372L129.934 96.1317L140.673 89.8901L151.413 83.6485L162.154 77.4082Z" fill="#1B8F85"/>
<path d="M9.45377 59.9638L28.7922 48.7266L25.3267 66.754L5.98828 77.9926L9.45377 59.9638Z" fill="#0E5666"/>
<path d="M10.3743 58.5111L29.7114 47.2725C29.2544 47.5381 28.9264 48.0309 28.7922 48.7269L9.45508 59.9642C9.59056 59.2682 9.91865 58.7754 10.3743 58.5111Z" fill="#0E5666"/>
<path d="M13.6621 67.4238L40.2955 107.599L43.5166 112.459L56.1764 105.006C59.8704 103.448 62.1564 99.6612 62.1564 94.0266C62.1564 88.3814 59.8704 81.9619 56.1764 76.132C52.4825 70.3128 47.3792 65.0714 41.746 61.8171C36.1008 58.5615 30.9975 57.904 27.3036 59.4621C26.6686 59.7397 26.0908 60.097 25.537 60.5008L13.6621 67.4238Z" fill="#221D38"/>
<path d="M7.68164 78.536C7.68164 84.1732 9.96628 90.5968 13.6616 96.4239C17.3555 102.251 22.4601 107.483 28.0973 110.739C33.7346 113.994 38.8391 114.656 42.5331 113.094C46.2271 111.533 48.513 107.748 48.513 102.11C48.513 96.4731 46.2284 90.0495 42.5331 84.2223C38.8378 78.3952 33.7346 73.1631 28.0973 69.9088C22.4601 66.6532 17.3555 65.9917 13.6616 67.5537C9.96761 69.1131 7.68164 72.8974 7.68164 78.536Z" fill="#BDFFFF"/>
<path d="M7.68164 78.536C7.68164 84.1732 9.96628 90.5968 13.6616 96.4239C17.3555 102.251 22.4601 107.483 28.0973 110.739C33.7346 113.994 38.8391 114.656 42.5331 113.094C46.2271 111.533 48.513 107.748 48.513 102.11C48.513 96.4731 46.2284 90.0495 42.5331 84.2223C38.8378 78.3952 33.7346 73.1631 28.0973 69.9088C22.4601 66.6532 17.3555 65.9917 13.6616 67.5537C9.96761 69.1131 7.68164 72.8974 7.68164 78.536Z" fill="#3B3847"/>
<path d="M38.2907 107.503C36.354 107.503 33.8701 106.684 31.2959 105.197C26.7877 102.594 22.3287 98.1482 19.0651 92.9985C15.8972 88.0015 14.0801 82.7295 14.0801 78.5348C14.0801 76.9608 14.3497 74.2072 16.1535 73.4435C16.6277 73.2429 17.2175 73.1406 17.9055 73.1406C19.8408 73.1406 22.3247 73.9602 24.9003 75.4466C29.4098 78.05 33.8675 82.4957 37.1324 87.6455C40.3004 92.6425 42.1174 97.9144 42.1174 102.108C42.1174 103.682 41.8478 106.437 40.044 107.199C39.5685 107.401 38.9787 107.503 38.2907 107.503Z" fill="#221D38"/>
<path d="M5.95312 50.2989L25.2916 39.0603C26.4565 38.3842 28.065 38.4945 29.8131 39.5026L10.4746 50.7412C8.72657 49.7317 7.11803 49.6215 5.95312 50.2989Z" fill="#1B8F85"/>
<path d="M10.4746 50.7412L29.8117 39.5039L67.0594 61.0075L47.721 72.246L10.4746 50.7412Z" fill="#6ABA7F"/>
<path d="M53.9375 81.7344L73.276 70.4971L77.2754 96.7466L57.937 107.985L53.9375 81.7344Z" fill="#6ABA7F"/>
<path d="M47.7209 72.2456C50.752 73.995 53.3621 77.9745 53.9372 81.7336L57.9367 107.984L52.0298 104.573L48.6772 82.6089C48.3744 80.6112 46.9863 78.4952 45.3751 77.5654L12.7777 58.745C11.1626 57.8125 9.77185 58.3239 9.45439 59.963L5.9889 77.9918L0.0820312 74.5808L4.22494 53.0321C4.82001 49.9478 7.43673 48.9874 10.4745 50.7408L47.7209 72.2456Z" fill="#0E5666"/>
<path d="M47.7207 72.2464L67.0578 61.0078C70.089 62.7572 72.699 66.7367 73.2742 70.4957L53.9357 81.7343C53.3619 77.9753 50.7518 73.9958 47.7207 72.2464Z" fill="#6ABA7F"/>
<path d="M119.637 31.8369V34.091L84.7441 54.3433V52.0892L119.637 31.8369Z" fill="#6ABA7F"/>
<path d="M84.745 52.0892V54.3434L33.6367 24.9631V22.709L84.745 52.0892Z" fill="#0E5666"/>
<path d="M119.638 31.8367L84.745 52.089L33.6367 22.7088L68.3859 2.2373L119.638 31.8367Z" fill="white"/>
<path d="M35.2461 22.6949L43.7511 17.6886L44.1257 17.4628L59.9149 8.16478L60.3028 7.939L68.3841 3.17578L80.9709 10.4428L93.2004 17.5079L105.397 24.5492L118.013 31.8361L109.289 36.8969L109.091 37.0138L93.2575 46.1988L93.0622 46.3144L84.7379 51.148L35.2461 22.6949Z" fill="white"/>
<path d="M117.201 31.8379L109.299 36.4218L109.084 36.5467L108.884 36.6649L101.212 41.1146L100.969 41.2568L100.766 41.375L93.0539 45.8473L92.8547 45.9655L92.6143 46.1037L84.7362 50.6796L72.7697 43.8004L72.5665 43.6822L72.4044 43.5892L60.596 36.799L60.3968 36.6848L60.1577 36.5467L48.4303 29.807L48.2284 29.6888L48.0491 29.5865L36.0547 22.6914L43.958 18.0384L44.1399 17.9295L44.3352 17.8113L52.0432 13.2725L52.2225 13.1676L52.4218 13.0494L60.1205 8.51461L60.3038 8.4097L60.507 8.29146L68.3851 3.64648L80.3887 10.5748L80.592 10.693L80.766 10.7939L92.5903 17.6253L92.9968 17.8604L104.792 24.6705L104.995 24.7887L105.194 24.9016L117.201 31.8379Z" fill="#0E5666"/>
<path d="M109.184 36.3716L97.295 29.5083L105.108 24.9576L105.193 24.9005L104.994 24.7863L104.79 24.6681L96.8872 29.2759L85.096 22.4738L92.893 17.9151L92.994 17.858L92.5875 17.6229L84.6922 22.2387L72.9011 15.4365L80.6901 10.8659L80.7632 10.7928L80.5878 10.6906L80.3846 10.5724L72.4933 15.2041L60.5029 8.28906L60.2997 8.40727L60.1164 8.51221C60.1536 8.54808 72.0908 15.4405 72.0908 15.4405L64.4027 19.9553L52.4163 13.0483L52.2171 13.1665L52.0377 13.2714C52.0789 13.3245 64.0003 20.1918 64.0003 20.1918L56.3082 24.7066L44.3297 17.8115L44.1345 17.9297L43.9512 18.0386L44.0322 18.1077L55.9044 24.9417L48.0622 29.5455C48.0423 29.5867 48.2203 29.6877 48.2203 29.6877L48.4235 29.8059L56.3108 25.1741L68.0861 31.9511L60.309 36.4978L60.1509 36.5469L60.39 36.6851L60.5892 36.7993L68.4885 32.1835L80.2637 38.9604L72.4588 43.5071L72.3977 43.5881L72.5597 43.6811L72.7629 43.7993L80.6702 39.1915L92.6154 46.0667C92.6075 46.1039 92.8466 45.9658 92.8466 45.9658L93.0458 45.8476L81.0713 38.9564L88.7754 34.4708L100.758 41.3739L100.961 41.2557L101.205 41.1135L101.043 41.0684L89.1792 34.2344L96.8832 29.7448L108.878 36.6651L109.077 36.5469L109.292 36.4207L109.184 36.3716ZM72.5013 15.6769L84.2884 22.4751L76.5924 26.9767L64.8132 20.1865L72.5013 15.6769ZM56.7199 24.9377L64.408 20.4229L76.1912 27.2131L68.4952 31.7146L56.7199 24.9377ZM80.6728 38.724L68.8976 31.9471L76.5977 27.4495L88.3769 34.2357L80.6728 38.724ZM88.7833 33.9979L77.0001 27.2078L84.6962 22.7102L96.4874 29.5123L88.7833 33.9979Z" fill="white"/>
<path d="M78.3477 110.927C78.3477 114.998 79.9987 119.638 82.6659 123.847C85.3344 128.056 89.0204 131.835 93.0929 134.186C97.1654 136.537 100.851 137.016 103.52 135.888C106.188 134.76 107.84 132.027 107.84 127.954C107.84 123.883 106.188 119.243 103.52 115.034C100.851 110.825 97.1654 107.046 93.0929 104.695C89.0204 102.343 85.3344 101.865 82.6659 102.993C79.9987 104.121 78.3477 106.854 78.3477 110.927Z" fill="#BDFFFF"/>
<path d="M78.3477 110.927C78.3477 114.998 79.9987 119.638 82.6659 123.847C85.3344 128.056 89.0204 131.835 93.0929 134.186C97.1654 136.537 100.851 137.016 103.52 135.888C106.188 134.76 107.84 132.027 107.84 127.954C107.84 123.883 106.188 119.243 103.52 115.034C100.851 110.825 97.1654 107.046 93.0929 104.695C89.0204 102.343 85.3344 101.865 82.6659 102.993C79.9987 104.121 78.3477 106.854 78.3477 110.927Z" fill="#3B3847"/>
<path d="M100.457 131.848C99.0582 131.848 97.2637 131.257 95.4041 130.182C92.1472 128.303 88.9274 125.091 86.5697 121.372C84.2811 117.763 82.9688 113.955 82.9688 110.925C82.9688 109.788 83.1627 107.799 84.4657 107.248C84.8084 107.103 85.2348 107.03 85.7316 107.03C87.1303 107.03 88.9234 107.621 90.783 108.695C94.04 110.575 97.2597 113.786 99.6174 117.506C101.906 121.115 103.218 124.924 103.218 127.952C103.218 129.089 103.024 131.079 101.72 131.63C101.38 131.775 100.954 131.848 100.457 131.848Z" fill="#221D38"/>
<path d="M154.96 74.5339L122.751 93.2494C122.601 92.827 122.447 92.4126 122.287 91.9942L153.366 73.9375L154.96 74.5339Z" fill="#6ABA7F"/>
</svg>
