<svg class="offer-img" version="1.1" id="Шар_1" xmlns="http://www.w3.org/2000/svg" xmlns:xlink="http://www.w3.org/1999/xlink" x="0px" y="0px"
     viewBox="0 0 567 567" style="enable-background:new 0 0 567 567;" xml:space="preserve">
                                <g>
                                <path d="M509.54,315.3v-55.77c0-4.27-3.34-7.84-7.6-8.14l0,0c-11.91-0.81-23.6-3.44-34.66-7.69V75.64
                                    c0-8.06-6.55-14.61-14.61-14.61H133.43c-8.06,0-14.61,6.55-14.61,14.61v441.9c0,8.06,6.55,14.61,14.61,14.61h319.23
                                    c8.06,0,14.61-6.55,14.61-14.61V406.33c25.99-21.85,41.56-53.71,42.18-87.26L509.54,315.3z M452.25,517.13h-318.4V76.05h318.4
                                    v160.63c-7.9-4.37-15.33-9.62-22.08-15.7c-3.13-2.85-7.85-2.85-10.96-0.01c-19.75,17.82-45.24,28.62-71.78,30.42
                                    c-4.26,0.29-7.6,3.87-7.59,8.14l0,55.16l0.08,4.42c0.69,37.28,19.85,72.48,51.27,94.16l28.87,19.93c1.39,0.96,3.01,1.44,4.63,1.44
                                    c1.62,0,3.25-0.48,4.63-1.43l22.93-15.83V517.13z M493.15,318.73v0.01c-0.59,32.08-17.13,62.4-44.23,81.11l-24.24,16.73
                                    l-24.24-16.73c-27.1-18.71-43.64-49-44.23-81.04l-0.08-4.27l0-47.6c25.21-3.14,48.8-13.18,68.55-29.18
                                    c19.74,16,43.33,26.04,68.55,29.18l0,48.19L493.15,318.73z"/>
                                    <rect x="321.09" y="127.56" width="95.14" height="15.03"/>
                                    <rect x="321.09" y="163.96" width="95.14" height="15.03"/>
                                    <rect x="321.09" y="454.65" width="95.14" height="15.03"/>
                                    <path d="M245.76,296.09c7.76-6.29,10.35-18.82,11.2-25.73c0.3-2.45-0.42-4.96-1.98-6.89c-1.56-1.92-3.87-3.15-6.33-3.36
                                    c-4.51-0.39-11.5-0.55-17.97,1.11c2.12-3.98,3.36-8.82,3.36-14.09c0-9.99-8.11-19.89-12.95-24.9c-1.72-1.78-4.12-2.8-6.6-2.8
                                    c-2.48,0-4.88,1.02-6.6,2.8c-4.84,5.01-12.95,14.9-12.95,24.9c0,4.81,1.02,9.25,2.81,13.01c-4.32-0.82-8.49-1.03-11.54-1.04
                                    c-0.01,0-0.01,0-0.02,0c-2.46,0-4.86,1.01-6.58,2.79c-1.72,1.78-2.67,4.21-2.59,6.69c0.23,6.96,1.69,19.67,8.86,26.63
                                    c0.1,0.09,0.2,0.18,0.3,0.28c-2.46,0-4.85,1.01-6.57,2.78c-1.73,1.78-2.67,4.21-2.59,6.69c0.23,6.96,1.69,19.67,8.86,26.63
                                    c4.41,4.28,9.83,7.13,15.26,8.02c1.21,0.2,2.4,0.3,3.56,0.3c1.7,0,3.34-0.22,4.9-0.63v30.53h15.03v-30.93
                                    c1.15,0.2,2.33,0.31,3.53,0.31c5.77,0,12.08-2.24,17.59-6.71l0,0c7.76-6.29,10.35-18.82,11.2-25.73c0.3-2.45-0.42-4.96-1.98-6.89
                                    c-1.56-1.92-3.87-3.15-6.33-3.36c-0.95-0.08-2.01-0.15-3.14-0.2C245.59,296.21,245.67,296.16,245.76,296.09L245.76,296.09z
                                     M206.54,324.38c-0.44,0.46-1.6,0.62-2.95,0.39c-2.4-0.39-5.03-1.84-7.23-3.98c-1.62-1.57-2.96-5.25-3.7-9.88
                                    c4.65,0.6,8.36,1.82,9.99,3.39C206.94,318.48,207.61,323.27,206.54,324.38z M206.54,288c-1.08,1.11-5.89,0.58-10.19-3.59
                                    c-1.62-1.57-2.96-5.25-3.7-9.88c4.65,0.6,8.37,1.82,9.99,3.39C206.94,282.1,207.61,286.89,206.54,288z M214.49,237.59
                                    c2.81,3.76,4.52,7.27,4.52,9.53c0,5.99-2.97,9.81-4.52,9.81c-1.55,0-4.52-3.82-4.52-9.81
                                    C209.97,244.87,211.68,241.35,214.49,237.59z M221.15,302.1c-1.88,1.52-3.51,3.19-4.91,4.94c-0.94-1.21-1.98-2.39-3.13-3.51l0,0
                                    c-0.46-0.45-0.95-0.87-1.45-1.27c1.86-0.74,3.56-1.82,5.06-3.22c1.48,1.17,3.15,2.07,4.95,2.69
                                    C221.49,301.85,221.31,301.96,221.15,302.1z M236.3,320.79c-4.65,3.77-9.49,3.87-10.46,2.66c-0.98-1.21,0.12-5.91,4.78-9.68
                                    c1.76-1.42,5.56-2.31,10.25-2.49C239.71,315.83,238.05,319.37,236.3,320.79z M236.3,284.42c-4.65,3.77-9.49,3.87-10.46,2.66
                                    c-0.98-1.2,0.12-5.91,4.78-9.68c1.76-1.42,5.56-2.31,10.25-2.49C239.71,279.45,238.05,282.99,236.3,284.42z"/>
                                    <polygon points="525.05,463.94 525.05,448.26 509.25,448.26 509.25,463.94 495.02,463.94 495.02,479.73 509.25,479.73
                                    509.25,495.41 525.05,495.41 525.05,479.73 540.93,479.73 540.93,463.94 	"/>
                                    <polygon points="56.1,139.79 40.3,139.79 40.3,155.47 26.07,155.47 26.07,171.26 40.3,171.26 40.3,186.94 56.1,186.94 56.1,171.26
                                    71.98,171.26 71.98,155.47 56.1,155.47 	"/>
                                    <path d="M162.78,201.67h99.62c7.81,0,14.14-6.33,14.14-14.14v-13.56c0-0.02-0.02-0.04-0.04-0.04h-7.47c-4.61,0-8.33-3.89-8.04-8.57
                                    c0.27-4.29,4.05-7.53,8.35-7.53h7.16c0.02,0,0.04-0.02,0.04-0.04v-19.56c0-6.27-4.38-11.5-10.24-12.84l-63.82-30.42
                                    c-2.34-1.11-4.92-1.52-7.47-1.16c-8.14,1.14-34.87,7.07-42.03,35.71c-0.35,0.85-0.54,1.77-0.54,2.75v0.24c0,0.02,0,0.03,0,0.05
                                    v58.77C152.43,197.04,157.07,201.67,162.78,201.67z M196.52,108.79l34.14,16.27H170.8C177.82,112.88,191.22,109.61,196.52,108.79z
                                     M167.46,140.12c0-0.02,0.02-0.04,0.04-0.04h93.98c0.02,0,0.04,0.02,0.04,0.04v3.91c0,0.02-0.01,0.03-0.03,0.04
                                    c-9.04,3.13-15.54,11.72-15.54,21.81c0,9.06,5.25,16.92,12.87,20.7c0.04,0.02,0.02,0.07-0.02,0.07h-91.3
                                    c-0.02,0-0.04-0.02-0.04-0.04V140.12z"/>
                                    <ellipse transform="matrix(0.9975 -0.0709 0.0709 0.9975 -11.6432 13.5235)" cx="184.71" cy="170.8" rx="8.09" ry="8.09"/>
                                    <path d="M210.8,161.37c4.47,0,8.09-3.62,8.09-8.09c0-4.47-3.62-8.09-8.09-8.09c-4.47,0-8.09,3.62-8.09,8.09
                                    C202.71,157.75,206.33,161.37,210.8,161.37z"/>
                                    <ellipse transform="matrix(0.9871 -0.1602 0.1602 0.9871 -24.7684 39.3162)" cx="231.48" cy="173.29" rx="8.09" ry="8.09"/>
                                    <path d="M277.7,432.85h-0.42c-1.38-18.58-12.7-37.78-28.52-37.78c-3.38,0-6.71,0.92-9.85,2.67c-5.41-8.69-12.92-13.79-20.9-13.79
                                    c-7.96,0-15.45,5.08-20.86,13.73c-3.1-1.72-6.39-2.6-9.79-2.6c-15.82,0-27.14,19.2-28.52,37.78h-0.53
                                    c-8.2,0-14.87,6.67-14.87,14.87v6.63c0,28.96,23.56,52.51,52.51,52.51h44.09c28.96,0,52.51-23.56,52.51-52.51v-6.63
                                    C292.56,439.52,285.89,432.85,277.7,432.85z M242.27,414.44c2.18-2.76,4.55-4.35,6.49-4.35c5.28,0,12.18,10.76,13.44,22.75h-26.87
                                    C236.03,425.99,238.6,419.06,242.27,414.44z M218.01,398.98c2.79,0,6.81,3.39,9.86,9.88c-4.23,6.81-6.98,15.45-7.62,23.99h-4.37
                                    c-0.64-8.58-3.41-17.26-7.68-24.08C210.98,402.94,214.84,398.98,218.01,398.98z M187.37,410.1c1.92,0,4.27,1.56,6.45,4.29
                                    c3.69,4.61,6.27,11.57,6.99,18.47h-26.87C175.19,420.86,182.09,410.1,187.37,410.1z M277.54,454.35
                                    c0,20.67-16.82,37.49-37.49,37.49h-44.09c-20.67,0-37.49-16.82-37.49-37.49v-6.47h1.12l0,0h55.54l0,0h5.85l0,0h55.54l0,0h1.01
                                    V454.35z"/>
                                    <path d="M106.2,46.26h311.27c4.42,0,8-3.58,8-8v0c0-4.42-3.58-8-8-8H106.2c-10.64,0-19.27,8.63-19.27,19.27v438.28
                                    c0,5.81,2.59,11.03,6.67,14.57c4.93,4.27,12.6,0.68,12.6-5.83v-1.34c0-1.95-0.92-3.72-2.3-5.1c-0.6-0.6-0.97-1.41-0.97-2.3V49.53
                                    C102.93,47.73,104.4,46.26,106.2,46.26z"/>
                                    <path d="M469.15,288.59h-23.79c-3.28,0-6.37,1.6-8.25,4.29l-15.49,22.06l-7.86-10.67c-1.9-2.57-4.93-4.1-8.11-4.1
                                    c-0.02,0-0.05,0-0.07,0l-23.86,0.15c-3.75,0.02-7.16,2.1-8.89,5.44c-1.73,3.33-1.48,7.32,0.67,10.4l39.34,56.67
                                    c1.88,2.71,4.97,4.33,8.26,4.33c0.01,0,0.02,0,0.02,0c3.28,0,6.37-1.6,8.25-4.29l48.03-68.4c2.17-3.09,2.44-7.09,0.7-10.45
                                    C476.36,290.67,472.93,288.59,469.15,288.59z M421.15,356.75l-28.11-40.5l9.63-0.06l10.94,14.86c1.9,2.58,4.93,4.11,8.12,4.11
                                    c0.04,0,0.08,0,0.11,0c3.24-0.04,6.28-1.64,8.14-4.29l18.45-26.27h9.33L421.15,356.75z"/>
                            </g>
                            </svg>