<svg id="Шар_1" data-name="Шар 1" xmlns="http://www.w3.org/2000/svg" viewBox="0 0 146.76 16.17"><defs><style>.cls-1{fill:#39a935;}.cls-2{fill:#149bd7;}.cls-3{fill:#fff;}</style></defs><path class="cls-1" d="M81.47,276H72l-.37,1.54h2.28l-.94,5L74.27,284l1.22-6.44h6a.86.86,0,0,0,.85-.59h0A.8.8,0,0,0,81.47,276Z" transform="translate(-70.73 -271.99)"/><path class="cls-2" d="M86.87,273.56a4.73,4.73,0,0,0-3.59-1.13H71.19l-.46,2.38H82.16a2.17,2.17,0,0,1,1.75.6,1.68,1.68,0,0,1,.25,1.43,2.4,2.4,0,0,1-2.65,1.93h-5l-1.2,6.16L78,287.76l1.29-6.61h2.2A6.6,6.6,0,0,0,85.57,280a5.25,5.25,0,0,0,1.93-3.25A3.44,3.44,0,0,0,86.87,273.56Z" transform="translate(-70.73 -271.99)"/><path class="cls-3" d="M87.64,287.76l3.09-15.53H98c3.38,0,4.76,2.28,4.22,5a6.2,6.2,0,0,1-6.21,5H92l-1.1,5.52Zm11.2-10.53c.26-1.3-.56-2.09-1.87-2.09H93.46l-.84,4.19h3.52A2.67,2.67,0,0,0,98.84,277.23Z" transform="translate(-70.73 -271.99)"/><path class="cls-3" d="M112.88,287.76l-.43-2.63h-6.66l-1.5,2.63h-3.78l9.1-15.53h4.15l2.89,15.53ZM111,275.53l-3.76,6.69h4.85Z" transform="translate(-70.73 -271.99)"/><path class="cls-3" d="M122.45,287.76l-2.92-15.53h3.77l1.93,11.94,6.66-11.94h3.78l-9.08,15.53Z" transform="translate(-70.73 -271.99)"/><path class="cls-3" d="M134,287.76l3.09-15.53h3.31l-2.51,12.62h6.56l-.58,2.91Z" transform="translate(-70.73 -271.99)"/><path class="cls-3" d="M147.43,281.56l1.86-9.33h3.35l-1.83,9.22c-.43,2.16.53,3.65,2.92,3.65a4.24,4.24,0,0,0,4.36-3.65l1.84-9.22h3.37l-1.85,9.31c-.77,3.87-3.57,6.5-8.3,6.5S146.67,285.38,147.43,281.56Z" transform="translate(-70.73 -271.99)"/><path class="cls-3" d="M172.48,287.76,169,281.54l-1.5,1.44-1,4.78h-3.31l3.1-15.53h3.3l-1.38,6.94,6.88-6.94h4.07l-7.62,7.28,4.95,8.25Z" transform="translate(-70.73 -271.99)"/><path class="cls-3" d="M177.46,285.57l2.29-2.52a5.52,5.52,0,0,0,4.52,2.1c1.82,0,2.87-.84,3-1.72.54-2.75-8.77-.86-7.61-6.71.51-2.58,3.18-4.73,6.83-4.73a7.15,7.15,0,0,1,5.62,2.17l-2.32,2.42a5.51,5.51,0,0,0-4.18-1.7c-1.42,0-2.33.63-2.52,1.56-.49,2.47,8.76.82,7.6,6.61-.56,2.84-3,5-7.2,5C180.56,288,178.61,287,177.46,285.57Z" transform="translate(-70.73 -271.99)"/><path class="cls-3" d="M194.35,286.79l.52-2.62H194l.23-1.16h.83l.27-1.37h1.33l-.27,1.37h1l-.23,1.16h-1l-.45,2.26c-.06.32.06.56.35.56a.85.85,0,0,0,.48-.15l.09,1a1.92,1.92,0,0,1-1.17.32C194.57,288.16,194.17,287.68,194.35,286.79Z" transform="translate(-70.73 -271.99)"/><path class="cls-3" d="M197.36,288l1-5h1.32l-.14.69a2.68,2.68,0,0,1,1.76-.81l-.25,1.29a1.71,1.71,0,0,0-.36,0,2,2,0,0,0-1.35.58l-.66,3.32Z" transform="translate(-70.73 -271.99)"/><path class="cls-3" d="M204.12,288l.1-.52a2.53,2.53,0,0,1-1.72.64,1.34,1.34,0,0,1-1.42-1.66,2,2,0,0,1,2.08-1.63,1.67,1.67,0,0,1,1.46.62l.14-.68c.1-.51-.27-.84-.94-.84a2.57,2.57,0,0,0-1.58.59l-.32-.88a3.93,3.93,0,0,1,2.35-.79c1.14,0,2.1.45,1.82,1.9l-.65,3.25Zm.24-1.21.12-.62a1.06,1.06,0,0,0-1-.44,1,1,0,0,0-1.1.76c-.09.47.28.74.8.74A1.62,1.62,0,0,0,204.36,286.83Z" transform="translate(-70.73 -271.99)"/><path class="cls-3" d="M210.14,288l.61-3c.14-.7-.18-.94-.74-.94a1.77,1.77,0,0,0-1.26.59l-.68,3.39h-1.32l1-5h1.32l-.13.66a2.81,2.81,0,0,1,1.92-.78c1.1,0,1.5.62,1.31,1.6l-.71,3.55Z" transform="translate(-70.73 -271.99)"/><path class="cls-3" d="M212.47,287.38l.75-.93a2.34,2.34,0,0,0,1.61.69c.57,0,.88-.23.95-.54.16-.83-3-.16-2.57-2.13a2.25,2.25,0,0,1,2.38-1.58,2.69,2.69,0,0,1,1.89.68l-.71.91a1.75,1.75,0,0,0-1.37-.58c-.48,0-.84.21-.89.49-.15.75,3,.13,2.55,2.16a2.32,2.32,0,0,1-2.5,1.61A2.81,2.81,0,0,1,212.47,287.38Z" transform="translate(-70.73 -271.99)"/></svg>